<?xml version="1.0" standalone="no"?>
<!DOCTYPE svg PUBLIC "-//W3C//DTD SVG 20010904//EN"
 "http://www.w3.org/TR/2001/REC-SVG-20010904/DTD/svg10.dtd">
<svg version="1.0" xmlns="http://www.w3.org/2000/svg"
 width="200.000000pt" height="195.000000pt" viewBox="0 0 200.000000 195.000000"
 preserveAspectRatio="xMidYMid meet">

<g transform="translate(0.000000,195.000000) scale(0.100000,-0.100000)"
fill="#000000" stroke="none">
<path d="M673 1778 c-93 -97 -160 -245 -170 -378 -14 -180 65 -355 242 -534
83 -84 171 -156 160 -131 -100 235 -71 444 92 658 35 47 42 62 32 73 -6 7 -16
11 -22 7 -6 -3 -7 -1 -3 6 7 10 -114 156 -249 299 l-40 43 -42 -43z"/>
<path d="M186 608 c-9 -12 -16 -29 -16 -38 0 -27 30 -60 54 -60 24 0 54 26 43
37 -4 3 -9 -2 -13 -11 -9 -22 -40 -20 -57 5 -32 45 17 103 59 69 8 -8 14 -8
14 -2 0 5 -7 13 -16 16 -30 11 -53 6 -68 -16z"/>
<path d="M309 597 c12 -21 22 -50 22 -65 2 -27 2 -27 8 3 3 17 14 46 24 65
l18 35 -22 -28 -22 -29 -24 29 -25 28 21 -38z"/>
<path d="M401 568 c1 -35 4 -51 6 -35 3 20 10 27 26 27 33 0 49 15 45 41 -2
20 -10 25 -40 27 l-38 3 1 -63z m66 36 c7 -18 -14 -35 -37 -31 -8 1 -16 12
-18 25 -3 18 1 22 23 22 14 0 28 -7 32 -16z"/>
<path d="M511 568 c1 -35 4 -51 6 -35 4 22 9 27 34 27 24 0 29 -4 29 -25 0
-14 4 -25 10 -25 5 0 7 7 3 16 -3 9 -7 35 -7 58 -1 40 -2 41 -38 44 l-38 3 1
-63z m66 36 c7 -18 -12 -34 -39 -34 -13 0 -18 8 -18 25 0 20 5 25 25 25 14 0
28 -7 32 -16z"/>
<path d="M622 585 c-2 -55 10 -75 44 -75 33 0 46 23 41 77 l-3 48 -2 -53 c-2
-38 -6 -54 -18 -59 -29 -11 -49 12 -55 63 l-6 49 -1 -50z"/>
<path d="M751 616 c-17 -20 -7 -33 35 -51 24 -10 32 -18 28 -29 -8 -21 -51
-20 -63 2 -6 9 -11 12 -11 6 -1 -32 58 -46 80 -19 18 22 5 45 -29 51 -16 4
-32 13 -35 21 -8 19 23 29 46 14 16 -10 19 -10 16 1 -6 19 -52 22 -67 4z"/>
<path d="M907 623 c-18 -18 -5 -42 29 -53 24 -8 34 -17 32 -28 -5 -24 -39 -27
-56 -6 -13 18 -14 18 -10 -1 2 -15 11 -20 38 -20 29 0 36 4 38 23 3 18 -4 26
-32 37 -20 9 -36 20 -36 25 0 17 31 24 51 12 15 -10 17 -9 13 3 -6 15 -55 21
-67 8z"/>
<path d="M1010 570 l0 -60 43 2 42 1 -37 4 c-32 4 -38 8 -38 28 0 20 6 24 38
28 l37 4 -37 1 c-30 2 -38 6 -38 21 0 15 8 21 38 24 l37 4 -42 1 -43 2 0 -60z"/>
<path d="M1130 615 c-17 -20 -17 -69 0 -89 22 -28 81 -14 80 18 0 6 -5 3 -11
-6 -23 -40 -69 -14 -69 39 0 27 5 34 25 39 15 4 32 1 42 -7 14 -12 16 -12 11
1 -7 21 -62 25 -78 5z"/>
<path d="M1242 585 c-2 -55 10 -75 43 -75 33 0 45 20 43 74 l-1 51 -6 -49
c-11 -89 -67 -87 -74 2 l-3 47 -2 -50z"/>
<path d="M1361 568 c1 -49 3 -56 9 -33 4 17 5 42 2 58 -4 25 -2 27 27 27 23 0
31 -4 31 -18 0 -11 -10 -24 -22 -30 l-23 -11 23 0 c17 -1 22 -7 22 -26 0 -14
5 -25 10 -25 12 0 12 -2 1 37 -6 20 -6 35 0 38 21 14 -12 45 -46 45 l-35 0 1
-62z"/>
<path d="M1471 570 c1 -33 5 -60 10 -60 5 0 9 27 9 60 0 33 -4 60 -10 60 -5 0
-9 -27 -9 -60z"/>
<path d="M1522 623 c18 -5 25 -22 31 -83 3 -22 4 -15 5 22 2 50 5 57 25 61 12
2 0 4 -28 4 -27 1 -42 -1 -33 -4z"/>
<path d="M1618 623 c-2 -5 -1 -33 3 -63 l6 -55 1 63 c2 57 -1 74 -10 55z"/>
<path d="M1660 570 l0 -60 43 2 42 1 -37 4 c-32 4 -38 8 -38 28 0 20 6 24 38
28 l37 4 -37 1 c-30 2 -38 6 -38 21 0 15 8 21 38 24 l37 4 -42 1 -43 2 0 -60z"/>
<path d="M1777 623 c-18 -17 -5 -42 28 -54 23 -9 35 -19 33 -29 -5 -22 -37
-24 -60 -3 -15 12 -20 14 -16 4 7 -23 33 -34 61 -27 40 10 36 43 -8 62 -41 17
-47 44 -10 44 14 0 25 -4 25 -10 0 -5 5 -10 11 -10 8 0 8 5 -1 15 -13 15 -51
20 -63 8z"/>
<path d="M380 396 c-11 -26 -20 -55 -19 -64 0 -12 3 -10 9 6 12 29 56 30 65 1
4 -11 9 -18 12 -15 6 5 -26 96 -38 110 -5 5 -17 -12 -29 -38z m37 -22 c-3 -3
-12 -4 -20 -2 -11 2 -12 9 -5 28 l10 25 11 -23 c5 -12 8 -25 4 -28z"/>
<path d="M472 378 c1 -57 2 -58 5 -15 2 26 7 47 11 47 4 0 20 -20 37 -45 16
-24 33 -41 37 -39 12 7 10 114 -2 114 -5 0 -10 -21 -10 -47 l0 -48 -31 48
c-17 26 -35 47 -40 47 -5 0 -8 -28 -7 -62z"/>
<path d="M594 383 c1 -56 2 -58 29 -61 37 -4 67 23 67 59 0 37 -24 59 -64 59
l-33 0 1 -57z m76 28 c5 -11 10 -26 10 -35 0 -21 -28 -46 -51 -46 -16 0 -19 7
-19 50 0 46 2 50 25 50 14 0 29 -8 35 -19z"/>
<path d="M760 380 l0 -60 48 1 c47 2 47 2 9 8 -21 3 -38 9 -37 14 0 4 0 13 0
21 0 9 13 16 33 19 l32 4 -37 1 c-31 2 -35 5 -31 21 4 14 16 21 42 24 32 3 30
4 -11 5 l-48 2 0 -60z"/>
<path d="M870 437 c0 -4 7 -19 16 -32 14 -22 14 -26 0 -47 -9 -12 -16 -27 -16
-33 0 -5 9 3 19 19 l19 28 17 -26 c10 -15 20 -25 22 -22 3 2 -3 16 -13 31 -16
25 -17 28 0 58 l17 32 -21 -25 -22 -24 -19 24 c-10 14 -19 21 -19 17z"/>
<path d="M986 424 c-22 -21 -20 -67 2 -87 22 -20 53 -22 70 -5 21 21 13 32 -9
12 -22 -19 -43 -13 -63 18 -16 26 8 68 39 68 14 0 25 -4 25 -10 0 -5 5 -10 11
-10 8 0 8 5 -1 15 -16 20 -54 19 -74 -1z"/>
<path d="M1103 380 c0 -36 2 -50 4 -32 4 29 7 32 38 32 31 0 34 -3 38 -32 2
-18 4 -4 4 32 0 36 -2 53 -4 38 -4 -24 -9 -28 -38 -28 -29 0 -34 4 -38 28 -2
15 -4 -2 -4 -38z"/>
<path d="M1231 384 c-12 -32 -19 -59 -17 -61 2 -3 7 5 11 16 9 28 51 28 65 0
21 -38 20 -14 -2 44 -11 31 -24 57 -28 57 -4 0 -17 -25 -29 -56z m49 -6 c0 -4
-9 -8 -21 -8 -15 0 -19 4 -15 16 3 9 6 21 6 27 1 13 30 -22 30 -35z"/>
<path d="M1332 379 l1 -64 6 53 6 54 30 -51 c16 -28 33 -51 37 -51 4 0 7 28 6
63 l-1 62 -6 -50 -6 -50 -23 36 c-12 20 -29 42 -37 49 -13 11 -15 4 -13 -51z"/>
<path d="M1460 421 c-22 -41 -2 -101 33 -101 38 1 57 14 57 39 l0 26 -13 -25
c-18 -36 -58 -34 -71 3 -7 19 -7 34 0 45 12 19 64 29 64 13 0 -6 5 -11 11 -11
8 0 8 5 -1 15 -18 22 -67 19 -80 -4z"/>
<path d="M1580 380 l0 -60 43 1 42 2 -35 6 c-26 4 -35 11 -35 26 0 15 9 22 35
26 l35 6 -37 2 c-30 1 -38 5 -38 20 0 15 8 21 38 24 l37 4 -42 1 -43 2 0 -60z"/>
<path d="M476 218 c-20 -28 -20 -48 0 -76 22 -32 84 -25 84 11 0 5 -7 1 -16
-7 -22 -22 -41 -20 -59 8 -32 49 23 103 64 64 11 -11 13 -10 9 2 -3 8 -18 16
-35 18 -23 2 -35 -3 -47 -20z"/>
<path d="M600 224 c-17 -20 -17 -68 0 -88 16 -20 54 -20 74 0 19 18 21 75 4
92 -17 17 -63 15 -78 -4z m69 -8 c31 -37 -9 -103 -46 -80 -37 23 -24 94 17 94
10 0 23 -6 29 -14z"/>
<path d="M722 178 l1 -63 6 50 6 50 16 -45 c9 -25 20 -44 25 -42 5 1 16 21 24
45 l15 42 6 -50 6 -50 1 63 c1 34 -2 62 -7 62 -5 0 -17 -23 -27 -52 l-17 -52
-12 35 c-7 19 -16 42 -19 52 -12 39 -26 14 -24 -45z"/>
<path d="M862 178 l1 -63 6 50 c6 53 11 52 30 -8 15 -46 24 -42 42 20 l14 48
6 -55 6 -55 1 63 c1 34 -2 62 -7 62 -5 0 -17 -24 -27 -52 l-17 -53 -17 49
c-24 74 -40 71 -38 -6z"/>
<path d="M1000 180 c0 -33 4 -60 10 -60 6 0 10 27 10 60 0 33 -4 60 -10 60 -6
0 -10 -27 -10 -60z"/>
<path d="M1057 233 c-18 -17 -5 -44 29 -58 20 -8 34 -20 32 -27 -7 -21 -38
-21 -60 -1 -15 12 -20 14 -16 4 7 -23 33 -34 61 -27 40 10 36 43 -8 62 -41 17
-47 44 -10 44 14 0 25 -4 25 -10 0 -5 5 -10 11 -10 8 0 8 5 -1 15 -13 15 -51
20 -63 8z"/>
<path d="M1167 233 c-18 -17 -5 -44 29 -58 20 -8 34 -20 32 -27 -7 -21 -38
-21 -60 -1 -21 18 -21 18 -9 -4 6 -13 20 -23 31 -23 59 0 69 43 15 66 -41 17
-47 44 -10 44 14 0 25 -4 25 -10 0 -5 5 -10 11 -10 8 0 8 5 -1 15 -13 15 -51
20 -63 8z"/>
<path d="M1273 180 c0 -36 2 -50 4 -32 2 17 2 47 0 65 -2 17 -4 3 -4 -33z"/>
<path d="M1322 228 c-16 -16 -16 -69 1 -92 9 -12 23 -17 42 -14 67 7 66 109 0
116 -17 2 -36 -3 -43 -10z m67 -12 c31 -37 -9 -103 -46 -80 -37 23 -24 94 17
94 10 0 23 -6 29 -14z"/>
<path d="M1442 178 c1 -57 2 -58 5 -15 2 26 8 47 12 47 4 0 17 -18 30 -40 34
-60 41 -58 39 12 -1 63 -1 63 -7 15 l-6 -47 -28 45 c-16 25 -33 45 -38 45 -5
0 -8 -28 -7 -62z"/>
</g>
</svg>
