<?xml version="1.0" standalone="no"?>
<!DOCTYPE svg PUBLIC "-//W3C//DTD SVG 20010904//EN"
 "http://www.w3.org/TR/2001/REC-SVG-20010904/DTD/svg10.dtd">
<svg version="1.0" xmlns="http://www.w3.org/2000/svg"
 width="6826.000000pt" height="1795.000000pt" viewBox="0 0 6826.000000 1795.000000"
 preserveAspectRatio="xMidYMid meet">

<g transform="translate(0.000000,1795.000000) scale(0.100000,-0.100000)"
fill="#000000" stroke="none">
<path d="M8715 16971 c-252 -163 -403 -277 -665 -500 -81 -69 -990 -967 -2283
-2255 l-2148 -2140 908 -908 c499 -499 912 -908 916 -908 12 0 516 498 2509
2476 948 941 1768 1751 1823 1799 55 48 139 117 187 152 l87 65 -46 91 c-136
273 -1126 2213 -1132 2219 -3 3 -73 -37 -156 -91z"/>
<path d="M34755 16779 c-2136 -161 -3662 -1403 -3919 -3189 -31 -214 -39 -370
-33 -669 7 -394 36 -629 114 -936 185 -727 591 -1284 1263 -1732 492 -329
1176 -616 2094 -879 144 -41 531 -142 861 -224 330 -82 701 -178 825 -214
1101 -315 1678 -648 1906 -1099 44 -87 88 -218 111 -332 25 -128 26 -503 0
-627 -147 -721 -783 -1193 -1785 -1325 -196 -26 -802 -25 -1047 1 -663 70
-1248 236 -1833 521 -510 248 -999 571 -1500 989 -90 75 -167 136 -171 136 -5
0 -307 -354 -671 -787 -365 -434 -670 -796 -678 -805 -20 -24 -17 -27 206
-213 1252 -1048 2721 -1672 4313 -1834 338 -35 568 -44 968 -38 393 6 564 18
874 62 918 132 1705 451 2312 938 710 569 1149 1362 1269 2287 39 297 46 759
16 1035 -130 1214 -759 2034 -2024 2640 -568 273 -1211 487 -2143 716 -1055
258 -1634 444 -2088 669 -573 283 -840 595 -909 1062 -21 142 -21 424 0 549
68 397 315 736 709 974 235 142 531 241 890 297 168 26 606 36 821 19 633 -51
1226 -216 1874 -523 347 -165 817 -448 1165 -703 80 -59 123 -84 132 -79 21
15 1212 1697 1207 1705 -11 18 -371 284 -529 392 -474 321 -1018 601 -1540
792 -602 220 -1213 350 -1950 416 -158 14 -957 20 -1110 8z"/>
<path d="M60457 16613 c-13 -32 -288 -659 -610 -1393 -321 -734 -1589 -3628
-2817 -6430 -1227 -2802 -2234 -5098 -2237 -5102 -2 -5 519 -8 1159 -8 l1164
0 664 1555 665 1555 3051 0 3051 0 100 -237 c55 -131 349 -833 654 -1561 l554
-1322 1197 0 1198 0 -23 52 c-13 29 -1287 2954 -2832 6501 l-2809 6447 -1052
0 -1051 0 -26 -57z m2158 -5248 l1103 -2560 -2216 -3 c-1218 -1 -2217 -1
-2219 1 -2 2 136 327 306 723 318 740 1861 4332 1888 4394 12 28 17 32 25 20
5 -8 506 -1167 1113 -2575z"/>
<path d="M19975 10175 c-4 -3545 -5 -6448 -2 -6451 3 -3 2177 -8 4831 -11
l4826 -6 0 1016 0 1017 -3695 0 -3695 0 0 1736 0 1736 3235 -3 3235 -4 0 1011
0 1011 -1832 6 c-1007 4 -2463 7 -3235 7 l-1403 0 0 1343 c0 738 3 1493 7
1677 l6 335 3649 -3 3648 -3 0 1016 0 1015 -4784 0 -4784 0 -7 -6445z"/>
<path d="M41357 12963 c-4 -2001 -7 -4906 -7 -6455 l0 -2818 1115 0 1115 0 0
2758 c0 1517 3 3590 7 4605 l6 1847 2014 -3021 2014 -3020 39 3 39 3 2026
3020 c1115 1661 2032 3025 2038 3032 9 9 11 -1081 9 -4612 l-2 -4625 1129 0
1129 0 6 1033 c3 567 7 3472 9 6455 l3 5422 -1210 -2 -1210 -3 -1945 -3017
c-1070 -1659 -1955 -3029 -1966 -3044 l-21 -27 -1959 3052 -1959 3051 -1206 0
-1207 0 -6 -3637z"/>
<path d="M11720 13859 c-553 -31 -1089 -222 -1540 -548 -955 -691 -1403 -1876
-1144 -3028 52 -234 122 -431 234 -658 378 -766 1074 -1328 1909 -1540 425
-109 921 -117 1346 -24 425 94 859 301 1205 575 119 94 382 360 470 474 320
415 524 885 600 1386 30 197 38 537 16 739 -103 962 -656 1797 -1502 2268
-358 200 -778 324 -1203 357 -146 11 -187 11 -391 -1z m211 -989 l33 -99 106
-3 105 -3 -82 -59 c-46 -33 -83 -65 -83 -71 0 -6 13 -51 30 -100 16 -49 28
-90 27 -92 -2 -2 -41 24 -87 57 -95 69 -75 70 -194 -17 -32 -24 -60 -42 -62
-40 -2 2 10 43 26 92 17 49 30 94 30 100 0 6 -37 38 -82 71 l-83 59 105 3 106
3 33 99 c18 55 34 100 36 100 2 0 18 -45 36 -100z m-887 -236 l33 -99 104 -5
104 -5 -75 -54 c-41 -29 -79 -57 -84 -61 -4 -5 6 -52 24 -105 18 -53 30 -98
29 -100 -2 -2 -40 23 -84 56 -44 32 -83 58 -86 59 -3 0 -43 -27 -89 -60 -46
-33 -85 -59 -87 -57 -1 2 11 43 27 92 17 49 30 94 30 101 0 7 -36 39 -81 71
l-81 58 105 3 105 3 33 104 c18 58 34 103 36 101 2 -2 18 -48 37 -102z m1776
-4 l31 -99 105 -3 105 -3 -82 -59 c-92 -66 -88 -52 -45 -189 14 -45 20 -74 13
-70 -7 4 -45 31 -84 60 -40 29 -76 53 -80 53 -5 -1 -44 -27 -88 -59 -44 -33
-82 -58 -84 -56 -1 2 11 47 29 100 18 53 28 100 24 105 -5 4 -43 32 -84 61
l-75 54 104 5 104 5 29 85 c36 109 36 110 42 110 3 0 19 -45 36 -100z m-2426
-646 l33 -99 107 -3 108 -3 -83 -60 c-46 -33 -84 -61 -86 -63 -1 -1 11 -46 28
-100 17 -54 29 -100 27 -101 -2 -2 -39 23 -83 55 -44 33 -83 59 -86 60 -3 0
-43 -27 -88 -61 -46 -33 -85 -59 -87 -56 -2 2 10 43 26 92 17 49 30 94 30 101
0 7 -36 38 -80 70 -44 31 -80 62 -80 67 0 6 37 8 103 4 l103 -7 34 105 c19 57
35 103 37 101 2 -2 18 -48 37 -102z m3077 -4 l33 -99 104 -3 104 -3 -81 -58
c-45 -32 -81 -64 -81 -71 0 -7 13 -52 30 -101 16 -49 28 -90 27 -92 -2 -2 -41
24 -87 57 -46 33 -86 60 -89 60 -3 -1 -42 -27 -86 -59 -44 -33 -82 -58 -84
-56 -1 2 11 47 29 100 18 53 28 100 24 105 -5 4 -43 32 -84 61 l-75 54 104 5
104 5 29 85 c36 108 36 110 42 110 3 0 19 -45 37 -100z m-3315 -883 l31 -92
106 -3 c59 -1 107 -6 107 -10 -1 -4 -39 -34 -85 -67 -47 -32 -85 -60 -85 -60
0 -1 15 -47 34 -103 19 -56 32 -102 30 -102 -3 0 -39 25 -80 56 -42 30 -81 57
-87 60 -7 2 -50 -23 -95 -57 -46 -33 -85 -59 -88 -57 -2 3 11 49 30 104 l33
100 -83 59 c-46 32 -84 63 -84 67 0 4 47 8 103 8 119 0 108 -10 147 123 13 42
26 75 29 71 3 -3 20 -47 37 -97z m3688 -95 c58 -1 106 -6 106 -10 0 -4 -38
-34 -84 -66 l-83 -60 33 -100 c18 -56 31 -102 29 -104 -2 -2 -40 24 -85 57
-45 34 -85 61 -89 61 -4 0 -44 -27 -89 -60 -45 -33 -82 -54 -82 -47 0 7 14 53
30 102 17 49 27 92 23 96 -5 3 -44 33 -88 65 l-80 59 109 5 109 5 29 85 c15
47 31 92 34 100 4 9 20 -25 39 -85 l32 -100 107 -3z m-3448 -796 l28 -95 110
-3 110 -3 -87 -63 c-48 -35 -87 -64 -87 -66 0 -1 14 -42 30 -91 17 -49 30 -95
30 -102 0 -7 -37 14 -82 47 -45 33 -86 60 -92 60 -6 -1 -47 -27 -91 -60 -44
-32 -81 -58 -82 -56 -1 1 11 44 27 96 17 52 28 100 26 106 -3 7 -41 38 -86 70
l-82 59 111 3 110 3 32 99 c17 55 35 98 39 95 4 -2 20 -47 36 -99z m3073 4
l31 -99 111 -3 112 -3 -82 -59 c-44 -32 -84 -62 -87 -67 -3 -5 9 -52 26 -105
18 -52 30 -97 28 -100 -3 -2 -40 23 -84 56 -43 33 -84 60 -90 60 -6 0 -47 -27
-92 -60 -45 -33 -82 -54 -82 -47 0 7 14 53 30 102 17 49 30 90 30 91 0 2 -39
31 -87 66 l-87 63 110 3 110 3 22 72 c25 86 40 127 46 127 2 0 18 -45 35 -100z
m-2424 -657 l28 -92 110 -3 111 -3 -87 -63 c-48 -35 -87 -64 -87 -65 0 -1 14
-44 30 -96 16 -52 28 -96 25 -99 -2 -2 -41 23 -86 56 l-83 60 -85 -63 c-47
-35 -87 -62 -88 -61 -2 1 11 42 27 91 17 49 30 96 30 104 -1 9 -38 43 -83 76
l-82 60 107 3 107 3 33 99 c18 55 35 96 39 92 3 -4 19 -48 34 -99z m1774 7
l31 -99 111 -3 111 -3 -82 -59 c-45 -32 -83 -63 -86 -70 -2 -6 9 -54 26 -106
16 -52 28 -95 27 -96 -1 -2 -38 24 -82 56 -44 33 -85 59 -91 60 -6 0 -47 -27
-92 -60 -45 -33 -82 -54 -82 -47 0 7 14 53 30 102 17 49 30 90 30 91 0 2 -39
31 -87 66 l-87 63 110 3 110 3 22 72 c25 86 40 127 46 127 2 0 18 -45 35 -100z
m-888 -240 l33 -100 110 0 111 0 -70 -51 c-39 -28 -78 -57 -89 -64 -17 -13
-17 -17 13 -113 17 -55 31 -103 31 -107 0 -4 -17 6 -37 22 -21 16 -61 46 -89
66 l-51 36 -82 -60 c-46 -33 -84 -59 -87 -57 -2 3 10 44 26 93 17 49 30 94 30
99 0 6 -40 39 -87 74 l-87 62 110 0 110 0 33 100 c18 55 34 100 36 100 2 0 18
-45 36 -100z"/>
<path d="M6770 3568 l0 -1785 128 -95 c475 -355 948 -641 1438 -871 1002 -471
2035 -733 3148 -798 257 -15 918 -6 1156 15 992 89 1865 314 2757 708 l183 81
0 1524 0 1523 -137 -103 c-870 -654 -1851 -1032 -2973 -1144 -245 -24 -805
-24 -1050 0 -1128 113 -2105 489 -2978 1146 -277 209 -445 363 -1064 980
l-608 605 0 -1786z"/>
<path d="M46930 2340 c0 -227 -4 -350 -10 -350 -5 0 -10 4 -10 8 0 16 -102
113 -153 146 -152 98 -354 107 -524 25 -98 -48 -208 -160 -256 -259 -132 -278
-62 -629 161 -799 103 -79 204 -112 341 -112 172 1 301 67 419 216 l31 40 1
-117 0 -118 85 0 85 0 0 835 0 835 -85 0 -85 0 0 -350z m-279 -300 c247 -95
354 -405 226 -657 -78 -153 -276 -256 -433 -225 -254 52 -399 295 -340 573 45
212 215 347 421 335 39 -3 95 -14 126 -26z"/>
<path d="M52410 1855 l0 -835 90 0 90 0 0 158 0 157 118 117 117 118 210 -275
210 -275 103 0 c56 0 102 3 102 6 0 3 -113 154 -251 336 l-251 330 98 102 c55
55 166 170 249 254 l150 152 -115 -1 -115 -1 -310 -325 -310 -325 -5 569 -5
568 -87 3 -88 3 0 -836z"/>
<path d="M61860 1855 l0 -835 85 0 85 0 0 348 c0 441 8 486 103 589 100 108
266 139 410 75 51 -23 112 -88 141 -151 20 -44 21 -62 24 -453 l3 -408 89 0
90 0 0 403 c0 427 -4 473 -51 571 -42 90 -130 170 -223 202 -183 65 -396 18
-515 -112 -28 -31 -51 -60 -51 -65 0 -5 -4 -9 -10 -9 -6 0 -10 120 -10 340 l0
340 -85 0 -85 0 0 -835z"/>
<path d="M37960 2555 l0 -95 100 0 100 0 0 95 0 95 -100 0 -100 0 0 -95z"/>
<path d="M39480 2555 l0 -95 100 0 100 0 0 95 0 95 -100 0 -100 0 0 -95z"/>
<path d="M65670 2555 l0 -95 100 0 100 0 0 95 0 95 -100 0 -100 0 0 -95z"/>
<path d="M31885 2630 c-268 -57 -426 -262 -386 -501 33 -204 158 -296 523
-388 275 -69 356 -110 399 -198 49 -102 17 -234 -74 -303 -66 -51 -129 -71
-233 -77 -160 -10 -315 36 -461 135 -32 22 -67 49 -77 61 -11 11 -24 21 -30
21 -7 0 -36 -28 -64 -62 l-53 -63 46 -41 c87 -78 234 -153 370 -190 94 -25
306 -30 399 -10 253 57 404 246 382 481 -12 126 -65 211 -179 286 -79 51 -160
81 -370 134 -206 52 -288 87 -344 148 -108 117 -63 298 92 375 159 79 412 39
597 -93 26 -19 50 -35 52 -35 5 0 86 104 99 127 16 26 -182 138 -305 174 -81
23 -312 35 -383 19z"/>
<path d="M58357 2603 c-15 -28 -664 -1461 -698 -1540 l-18 -43 93 0 93 0 93
210 94 210 436 0 435 0 92 -208 92 -207 99 -3 100 -3 -363 803 -364 803 -85 3
c-84 3 -85 2 -99 -25z m287 -618 l165 -370 -356 -3 c-196 -1 -358 -1 -359 1
-3 3 338 765 353 790 4 7 12 -1 19 -18 7 -17 87 -196 178 -400z"/>
<path d="M19970 1820 l0 -800 580 0 580 0 0 80 0 80 -490 0 -490 0 0 280 0
280 435 0 435 0 0 85 0 85 -435 0 -435 0 0 270 0 270 485 0 485 0 0 85 0 85
-575 0 -575 0 0 -800z"/>
<path d="M48210 1820 l0 -800 90 0 90 0 2 639 3 639 285 -419 c157 -230 289
-417 294 -416 5 2 134 187 287 411 152 225 282 413 288 419 8 8 11 -172 11
-631 l0 -642 90 0 90 0 0 800 0 800 -92 0 -93 -1 -289 -434 c-159 -239 -290
-435 -291 -435 -1 0 -132 196 -291 435 l-289 434 -92 1 -93 0 0 -800z"/>
<path d="M38618 2383 l-3 -178 -82 -3 -83 -3 0 -74 0 -74 83 -3 82 -3 5 -420
5 -420 27 -51 c51 -97 132 -143 263 -152 84 -5 165 8 218 35 26 13 27 17 27
87 l0 74 -61 -19 c-149 -47 -268 -3 -299 110 -6 25 -9 169 -8 398 l3 358 188
3 187 2 0 75 0 75 -190 0 -190 0 0 180 0 180 -85 0 -85 0 -2 -177z"/>
<path d="M55067 2553 c-4 -3 -7 -84 -7 -180 l0 -173 -80 0 -80 0 0 -75 0 -75
80 0 80 0 0 -357 c0 -197 5 -389 10 -426 24 -168 120 -254 295 -265 84 -5 165
8 218 35 26 13 27 17 27 87 l0 74 -61 -19 c-146 -46 -269 -3 -298 104 -8 29
-11 155 -9 402 l3 360 188 3 187 2 0 75 0 75 -190 0 -190 0 0 180 0 180 -83 0
c-46 0 -87 -3 -90 -7z"/>
<path d="M60998 2383 l-3 -178 -82 -3 -83 -3 0 -74 0 -74 83 -3 82 -3 5 -415
5 -415 28 -57 c36 -74 85 -113 171 -140 82 -25 211 -21 289 8 l47 18 0 77 0
77 -55 -19 c-113 -40 -233 -15 -282 59 -31 47 -34 97 -31 472 l3 335 188 3
187 2 0 75 0 75 -187 2 -188 3 -3 178 -2 177 -85 0 -85 0 -2 -177z"/>
<path d="M66328 2383 l-3 -178 -82 -3 -83 -3 0 -74 0 -74 83 -3 82 -3 5 -416
5 -415 30 -59 c34 -67 92 -117 158 -137 67 -21 232 -17 295 6 l52 20 0 78 0
78 -37 -16 c-21 -9 -72 -18 -113 -21 -65 -4 -81 -1 -120 19 -56 29 -87 74 -95
141 -3 29 -5 203 -3 387 l3 335 188 3 187 2 0 75 0 75 -190 0 -190 0 0 180 0
180 -85 0 -85 0 -2 -177z"/>
<path d="M24210 2220 c-254 -35 -452 -210 -515 -455 -21 -79 -21 -242 0 -320
58 -217 225 -381 445 -436 77 -19 241 -17 315 5 104 31 194 84 270 160 173
174 227 431 140 662 -66 175 -227 321 -405 367 -74 19 -183 27 -250 17z m185
-166 c323 -84 440 -520 206 -767 -141 -149 -355 -178 -530 -74 -72 43 -126
106 -170 197 -32 68 -36 85 -39 176 -6 156 28 253 124 354 107 113 256 154
409 114z"/>
<path d="M25765 2219 c-116 -17 -242 -95 -326 -202 l-39 -49 0 116 0 116 -90
0 -90 0 2 -772 3 -773 88 -3 87 -3 0 297 0 296 39 -49 c101 -129 240 -194 411
-194 156 0 279 50 391 162 117 116 170 256 170 449 0 133 -15 201 -67 308
-103 211 -343 336 -579 301z m198 -179 c74 -28 145 -84 189 -151 57 -89 70
-133 76 -255 7 -162 -25 -259 -116 -356 -195 -208 -547 -143 -672 124 -173
369 159 774 523 638z"/>
<path d="M27150 2220 c-226 -35 -403 -205 -465 -445 -19 -76 -19 -250 0 -334
71 -298 360 -488 670 -441 134 20 237 70 345 167 l45 41 -20 22 c-11 12 -37
36 -58 52 l-37 30 -51 -46 c-95 -86 -200 -121 -342 -114 -78 3 -102 9 -158 36
-116 55 -211 187 -226 311 l-6 51 468 0 468 0 -5 108 c-13 275 -160 482 -388
546 -72 20 -172 27 -240 16z m161 -154 c108 -25 183 -86 236 -189 28 -55 53
-137 53 -174 l0 -23 -376 0 -377 0 7 48 c10 72 68 185 124 241 56 56 90 75
164 95 67 19 99 19 169 2z"/>
<path d="M29905 2219 c-107 -16 -213 -81 -288 -179 l-27 -35 0 98 0 97 -90 0
-90 0 0 -590 0 -590 90 0 90 0 0 369 c0 340 2 374 20 433 24 79 73 145 137
185 68 43 117 56 206 56 137 -1 239 -69 290 -193 21 -53 22 -69 25 -452 l3
-398 90 0 91 0 -5 418 c-3 273 -8 432 -16 461 -48 178 -177 295 -356 321 -79
11 -87 11 -170 -1z"/>
<path d="M33379 2220 c-227 -35 -403 -201 -466 -440 -21 -79 -23 -252 -4 -330
18 -78 83 -207 130 -261 52 -59 160 -133 233 -159 225 -79 467 -32 633 122
l68 63 -57 48 -56 49 -48 -43 c-26 -23 -81 -58 -122 -78 -73 -35 -78 -36 -195
-36 -111 0 -125 2 -182 29 -76 35 -164 123 -197 198 -25 57 -48 147 -40 160 3
4 215 8 471 8 l466 0 -6 98 c-7 118 -26 195 -72 287 -44 89 -99 152 -176 204
-102 68 -253 100 -380 81z m214 -170 c101 -38 186 -146 222 -281 27 -98 66
-89 -365 -89 l-380 0 6 28 c28 124 57 184 120 252 105 112 250 145 397 90z"/>
<path d="M34760 2220 c-195 -30 -365 -157 -450 -335 -49 -104 -63 -166 -62
-284 2 -168 52 -296 163 -415 170 -182 416 -240 657 -156 67 23 171 92 226
149 l40 41 -30 31 c-16 17 -41 40 -56 50 l-28 20 -59 -49 c-186 -155 -417
-160 -582 -14 -161 143 -199 412 -86 605 40 67 137 152 204 177 164 63 328 24
469 -112 l40 -39 57 60 c31 33 57 64 57 69 0 15 -119 109 -180 141 -100 53
-263 79 -380 61z"/>
<path d="M40520 2224 c-150 -24 -246 -70 -336 -159 -297 -296 -216 -840 151
-1014 87 -42 157 -56 270 -55 172 1 297 49 414 159 l63 61 -56 48 -56 48 -48
-43 c-26 -23 -81 -58 -122 -78 -73 -35 -78 -36 -195 -36 -109 0 -125 2 -178
27 -79 37 -161 117 -196 192 -29 62 -54 154 -45 168 3 4 215 8 471 8 l466 0
-6 98 c-7 118 -26 195 -72 287 -85 173 -235 273 -430 288 -38 3 -81 3 -95 1z
m184 -175 c67 -25 144 -97 180 -168 24 -46 56 -153 56 -185 0 -14 -38 -16
-380 -16 l-380 0 6 28 c28 124 57 184 120 252 105 112 250 145 398 89z"/>
<path d="M45065 2219 c-107 -16 -225 -90 -293 -184 l-21 -30 -1 98 0 97 -90 0
-90 0 0 -590 0 -590 90 0 89 0 3 388 c3 380 3 388 27 445 32 80 110 158 188
187 42 16 80 22 140 23 73 0 90 -4 147 -32 73 -36 117 -84 149 -164 21 -50 22
-71 25 -449 l3 -398 85 0 84 0 0 418 c0 449 -2 468 -54 570 -57 113 -173 192
-311 212 -79 11 -87 11 -170 -1z"/>
<path d="M54064 2220 c-211 -32 -375 -175 -451 -392 -34 -96 -42 -259 -19
-368 44 -211 196 -378 401 -443 91 -28 260 -30 350 -3 88 26 182 79 250 140
l60 54 -40 42 c-64 66 -70 67 -119 22 -91 -84 -191 -122 -321 -122 -215 0
-383 145 -412 356 l-6 44 467 0 466 0 0 83 c-1 170 -56 319 -160 431 -115 122
-296 183 -466 156z m228 -177 c112 -50 188 -160 217 -315 l8 -48 -380 0 -380
0 7 40 c26 162 145 306 286 345 73 20 168 12 242 -22z"/>
<path d="M63712 2219 c-348 -52 -581 -393 -507 -744 46 -220 211 -396 430
-461 81 -24 247 -24 334 0 217 59 386 234 437 453 21 91 14 253 -15 344 -27
86 -104 202 -172 262 -133 117 -328 173 -507 146z m267 -189 c119 -55 220
-180 250 -311 15 -62 13 -175 -3 -235 -87 -326 -470 -441 -710 -214 -250 236
-160 675 161 781 90 30 209 22 302 -21z"/>
<path d="M23390 2206 c-116 -31 -243 -133 -308 -246 l-32 -55 0 148 0 147 -90
0 -90 0 0 -590 0 -590 90 0 90 0 0 278 c0 307 8 369 59 479 36 76 113 160 179
196 57 31 150 57 204 57 l38 0 0 95 0 95 -47 -1 c-27 0 -68 -6 -93 -13z"/>
<path d="M28450 2214 c-14 -2 -56 -9 -95 -15 -72 -12 -231 -64 -240 -80 -3 -4
5 -38 17 -74 26 -76 13 -74 153 -24 83 30 100 33 215 33 148 1 205 -14 273
-74 55 -49 86 -119 94 -212 6 -66 5 -70 -13 -64 -130 40 -366 56 -494 32 -113
-20 -215 -71 -274 -136 -59 -67 -81 -131 -81 -240 1 -101 21 -155 86 -225 87
-94 194 -135 353 -135 158 0 278 45 376 142 l50 49 0 -85 0 -86 85 0 85 0 0
393 c0 419 -6 481 -52 576 -46 95 -150 175 -270 207 -54 14 -224 26 -268 18z
m285 -614 c33 -6 77 -16 98 -21 l37 -10 0 -88 c0 -78 -3 -95 -30 -149 -37 -72
-82 -115 -165 -153 -145 -68 -321 -54 -421 33 -113 100 -93 275 40 353 68 40
155 56 276 50 58 -2 132 -9 165 -15z"/>
<path d="M37528 2201 c-117 -38 -213 -116 -285 -232 l-38 -63 -3 147 -3 147
-84 0 -85 0 0 -590 0 -590 84 0 84 0 5 293 c5 319 10 356 68 474 68 141 226
242 377 243 l42 0 0 95 0 95 -52 -1 c-29 0 -79 -8 -110 -18z"/>
<path d="M41650 2205 c-162 -46 -260 -165 -260 -316 0 -86 17 -133 66 -188 54
-60 130 -98 304 -150 240 -73 310 -122 310 -220 0 -54 -24 -98 -72 -133 -48
-36 -91 -48 -176 -48 -117 0 -247 41 -346 109 -25 17 -49 31 -54 31 -5 0 -28
-27 -51 -60 l-42 -59 43 -31 c117 -86 290 -140 443 -140 194 0 330 72 393 208
23 48 27 71 27 142 0 75 -3 91 -29 138 -51 92 -124 135 -361 211 -88 29 -179
63 -203 77 -128 75 -102 233 47 283 48 16 156 14 226 -4 46 -12 165 -63 215
-92 6 -4 80 113 80 127 0 14 -154 86 -225 105 -87 24 -266 29 -335 10z"/>
<path d="M43610 2214 c-14 -2 -56 -9 -95 -15 -73 -12 -231 -64 -241 -80 -4 -7
31 -122 42 -137 1 -2 51 14 110 34 103 36 116 38 234 39 101 0 135 -4 179 -20
114 -42 177 -132 188 -268 6 -63 4 -70 -10 -64 -108 41 -430 56 -544 25 -97
-27 -154 -58 -214 -118 -151 -150 -125 -411 55 -531 85 -57 166 -79 290 -79
160 0 265 39 368 138 l58 55 0 -86 0 -87 86 0 85 0 -3 423 c-3 411 -4 424 -26
486 -52 143 -144 227 -294 267 -54 14 -224 26 -268 18z m280 -614 c30 -5 75
-15 99 -21 l43 -12 -4 -96 c-3 -83 -8 -103 -33 -150 -85 -155 -331 -232 -507
-158 -183 77 -199 320 -25 409 92 46 266 58 427 28z"/>
<path d="M50482 2210 c-105 -15 -302 -76 -302 -94 0 -11 43 -122 50 -130 5 -4
38 4 74 18 146 59 334 72 448 31 107 -38 176 -138 186 -269 5 -63 4 -68 -14
-62 -65 20 -185 37 -289 42 -269 12 -448 -63 -527 -223 -27 -56 -32 -75 -32
-146 -1 -106 21 -171 81 -237 88 -98 195 -140 357 -140 157 0 279 46 378 142
l48 47 0 -85 0 -84 85 0 85 0 0 398 c0 423 -6 485 -50 572 -29 56 -94 126
-148 157 -94 56 -285 83 -430 63z m323 -610 c33 -6 77 -16 98 -21 l37 -10 0
-83 c0 -49 -6 -101 -16 -129 -62 -181 -353 -279 -544 -182 -174 88 -170 313 8
405 76 39 263 48 417 20z"/>
<path d="M52008 2209 c-111 -26 -226 -114 -300 -229 l-48 -75 0 148 0 147 -90
0 -90 0 0 -590 0 -590 90 0 90 0 0 270 c0 304 10 379 63 490 35 74 120 166
185 199 52 27 145 51 194 51 l38 0 0 95 0 95 -47 -1 c-27 -1 -65 -5 -85 -10z"/>
<path d="M56151 2205 c-111 -31 -195 -96 -236 -181 -38 -80 -38 -201 0 -274
42 -81 149 -144 340 -200 168 -49 215 -69 261 -112 65 -60 70 -140 12 -213
-90 -114 -352 -97 -560 36 -26 17 -51 28 -56 25 -5 -3 -26 -30 -47 -60 l-38
-55 24 -21 c46 -38 205 -110 289 -130 214 -50 406 -9 513 110 56 63 81 131 81
225 -1 82 -17 126 -69 184 -54 60 -123 95 -309 156 -184 60 -218 75 -258 113
-59 55 -57 140 4 199 90 87 272 84 455 -8 42 -21 77 -38 78 -36 33 51 76 129
74 131 -26 21 -113 61 -189 87 -116 39 -278 49 -369 24z"/>
<path d="M65240 2201 c-114 -36 -210 -114 -282 -226 l-38 -60 0 143 0 142 -90
0 -90 0 0 -590 0 -590 90 0 90 0 0 288 c0 253 2 298 19 365 26 101 53 150 120
220 81 85 193 137 299 137 l42 0 0 95 0 95 -52 -1 c-29 0 -78 -8 -108 -18z"/>
<path d="M21450 1792 c0 -435 3 -469 52 -572 28 -56 97 -132 152 -164 96 -56
274 -76 389 -42 74 21 168 85 216 146 l41 52 0 -96 0 -96 90 0 90 0 0 590 0
590 -90 0 -89 0 -3 -393 -3 -392 -33 -67 c-61 -125 -168 -190 -312 -190 -181
0 -293 101 -320 288 -5 38 -10 223 -10 412 l0 342 -85 0 -85 0 0 -408z"/>
<path d="M35602 1778 c4 -397 5 -427 25 -485 39 -117 109 -201 210 -252 59
-30 125 -42 223 -42 149 1 245 43 345 154 l55 60 0 -96 0 -97 85 0 85 0 0 590
0 590 -84 0 -85 0 -3 -387 -3 -388 -28 -60 c-52 -112 -152 -189 -265 -203
-144 -19 -268 32 -328 133 -50 87 -54 120 -54 528 l0 377 -91 0 -91 0 4 -422z"/>
<path d="M37970 1610 l0 -590 85 0 85 0 0 590 0 590 -85 0 -85 0 0 -590z"/>
<path d="M39490 1610 l0 -590 90 0 90 0 0 590 0 590 -90 0 -90 0 0 -590z"/>
<path d="M59510 1803 c0 -431 5 -485 54 -581 75 -147 207 -223 391 -223 107
-1 158 11 238 54 53 28 157 126 157 148 0 5 5 9 10 9 6 0 10 -38 10 -95 l0
-95 85 0 85 0 0 590 0 590 -84 0 -85 0 -3 -382 c-4 -376 -4 -384 -27 -443 -33
-82 -115 -164 -196 -194 -75 -28 -182 -30 -257 -5 -80 26 -150 101 -177 189
-20 63 -21 90 -21 451 l0 384 -90 0 -90 0 0 -397z"/>
<path d="M65680 1610 l0 -590 90 0 90 0 0 590 0 590 -90 0 -90 0 0 -590z"/>
<path d="M67073 2188 c3 -7 121 -265 262 -573 141 -308 258 -571 261 -585 4
-17 -6 -44 -31 -85 -82 -138 -174 -170 -338 -118 -27 8 -50 13 -52 12 -8 -10
-56 -132 -52 -135 2 -3 31 -14 63 -27 48 -18 80 -22 174 -22 106 0 120 2 172
28 68 33 131 100 178 188 19 35 150 348 291 694 l256 630 -90 3 c-50 1 -93 -1
-97 -5 -4 -4 -90 -223 -190 -485 -101 -263 -186 -478 -189 -478 -3 0 -100 219
-216 485 l-210 485 -99 0 c-75 0 -97 -3 -93 -12z"/>
</g>
</svg>
