<?xml version="1.0" standalone="no"?>
<!DOCTYPE svg PUBLIC "-//W3C//DTD SVG 20010904//EN"
 "http://www.w3.org/TR/2001/REC-SVG-20010904/DTD/svg10.dtd">
<svg version="1.0" xmlns="http://www.w3.org/2000/svg"
 width="565.000000pt" height="500.000000pt" viewBox="0 0 565.000000 500.000000"
 preserveAspectRatio="xMidYMid meet">

<g transform="translate(0.000000,500.000000) scale(0.100000,-0.100000)"
fill="#000000" stroke="none">
<path d="M2029 3271 c-86 -27 -130 -81 -152 -187 l-14 -69 -36 -3 c-53 -5 -50
-32 3 -32 l40 0 0 -202 c0 -214 -7 -249 -45 -256 -11 -2 -24 -8 -30 -13 -5 -5
42 -9 119 -9 82 0 125 4 121 10 -3 6 -17 10 -30 10 -14 0 -29 8 -35 19 -6 12
-10 104 -10 230 l0 211 89 0 c68 0 93 -4 105 -16 13 -13 16 -46 16 -202 0
-103 -3 -197 -6 -210 -4 -15 -17 -25 -36 -29 -67 -13 -31 -23 87 -23 82 0 124
4 120 10 -3 6 -15 10 -25 10 -10 0 -26 10 -34 22 -13 19 -16 60 -16 249 l0
227 -150 -6 -150 -5 0 72 c0 118 35 171 114 171 33 0 44 -6 79 -45 42 -47 66
-55 87 -30 51 61 -99 129 -211 96z"/>
<path d="M885 3260 c-4 -6 -16 -8 -27 -4 -23 7 -47 -20 -48 -54 0 -20 4 -22
23 -17 21 7 21 6 3 -7 -10 -8 -16 -20 -12 -26 4 -7 2 -12 -3 -12 -6 0 -11 -13
-11 -29 0 -25 3 -28 23 -24 12 3 27 10 34 15 7 5 14 5 17 0 6 -10 -22 -27 -38
-23 -16 4 -36 -22 -36 -46 0 -22 2 -24 15 -13 10 8 15 9 15 2 0 -6 -8 -16 -17
-21 -14 -8 -14 -10 -4 -11 12 0 12 -3 3 -12 -18 -18 -16 -62 3 -54 8 3 15 1
15 -4 0 -6 -5 -10 -11 -10 -6 0 -9 -7 -6 -15 4 -8 2 -17 -3 -20 -13 -8 -13
-55 0 -55 6 0 10 6 8 13 -1 6 8 33 20 59 26 56 28 88 6 88 -14 0 -14 1 0 16 9
8 14 19 11 24 -3 4 2 11 11 14 24 9 28 7 14 -9 -11 -13 -8 -15 13 -15 32 0 57
9 57 21 0 5 -12 7 -27 4 -27 -6 -27 -6 -9 9 10 8 23 13 27 10 5 -3 9 0 9 5 0
15 -43 14 -58 -1 -6 -6 -15 -8 -19 -3 -5 4 -2 10 5 12 7 3 17 16 22 29 5 13
18 24 28 24 9 0 28 7 40 16 28 20 43 10 16 -11 -15 -12 -16 -14 -3 -15 23 0
116 47 122 62 3 10 8 10 16 2 13 -12 -15 -35 -64 -54 -14 -5 -25 -15 -25 -22
0 -9 3 -9 12 0 7 7 19 12 29 12 9 0 29 10 45 22 15 12 34 23 41 24 8 1 34 20
59 41 25 21 55 44 67 50 19 11 19 13 4 13 -19 0 -127 -77 -127 -91 0 -5 -7 -6
-15 -2 -12 4 -3 17 37 54 29 26 47 48 40 49 -7 0 -32 -18 -56 -40 -24 -22 -48
-40 -53 -40 -6 0 -27 -11 -48 -25 -44 -30 -61 -25 -21 6 14 11 25 26 24 33 -2
7 11 24 27 39 23 20 26 26 13 27 -10 0 -27 -10 -38 -22 -12 -13 -26 -23 -33
-23 -21 -1 -66 -27 -71 -41 -8 -21 9 -17 41 10 15 12 34 21 41 18 9 -2 1 -12
-20 -24 -18 -12 -34 -20 -36 -19 -1 1 -16 -6 -33 -15 -34 -17 -48 -14 -24 6 8
7 15 17 15 23 0 14 28 35 73 54 27 11 35 19 28 26 -7 7 -16 5 -29 -6 -10 -9
-25 -17 -33 -17 -12 0 -12 2 1 10 19 12 8 22 -14 14 -9 -4 -15 -11 -13 -18 4
-13 -35 -46 -46 -39 -5 3 1 12 12 20 22 15 28 33 11 33 -16 0 -55 -39 -47 -46
4 -4 -1 -13 -11 -20 -26 -20 -37 -17 -18 5 10 11 15 24 12 29 -3 5 4 12 15 15
12 3 18 10 14 16 -8 14 -22 14 -30 1z m-25 -40 c-20 -13 -33 -13 -25 0 3 6 14
10 23 10 15 0 15 -2 2 -10z m72 -46 c-13 -9 -21 -22 -18 -30 3 -8 1 -14 -3
-14 -5 0 -18 -3 -28 -6 -16 -6 -15 -5 2 9 25 19 11 36 -15 19 -24 -14 -30 -15
-30 -3 0 5 19 16 43 24 58 20 76 20 49 1z m-92 -64 c-8 -5 -17 -7 -19 -4 -3 3
1 9 9 14 8 5 17 7 19 4 3 -3 -1 -9 -9 -14z m20 -60 c-20 -13 -33 -13 -25 0 3
6 14 10 23 10 15 0 15 -2 2 -10z m-5 -100 c-3 -5 -10 -10 -16 -10 -5 0 -9 5
-9 10 0 6 7 10 16 10 8 0 12 -4 9 -10z"/>
<path d="M1127 3239 c-52 -43 -46 -56 8 -19 25 17 45 35 45 40 0 17 -14 11
-53 -21z"/>
<path d="M1345 3240 c-15 -16 -32 -27 -36 -24 -10 6 -109 -66 -109 -78 0 -13
42 11 78 46 18 17 35 30 38 28 8 -6 74 37 74 48 0 18 -15 11 -45 -20z"/>
<path d="M1458 3257 c-7 -8 -18 -12 -24 -10 -6 2 -31 -14 -56 -36 -25 -22 -48
-38 -51 -35 -3 3 -27 -9 -54 -27 -26 -19 -66 -43 -88 -54 -21 -11 -41 -26 -43
-34 -4 -10 5 -8 29 7 19 11 52 29 74 40 22 10 48 29 59 40 10 12 23 19 28 16
8 -5 58 28 92 61 8 9 19 16 23 15 18 0 43 12 43 21 0 13 -16 11 -32 -4z"/>
<path d="M1519 3247 c-59 -46 -71 -58 -66 -63 7 -7 59 26 70 44 5 7 18 17 30
22 21 8 21 9 2 9 -11 0 -27 -5 -36 -12z"/>
<path d="M1500 3170 c-44 -39 -46 -51 -3 -27 24 13 69 67 56 67 -4 0 -28 -18
-53 -40z"/>
<path d="M1387 3160 c-19 -16 -39 -30 -45 -30 -19 0 -64 -28 -80 -51 l-16 -23
34 22 c19 12 53 30 75 41 41 19 97 71 77 71 -6 0 -27 -13 -45 -30z"/>
<path d="M1526 3131 c-21 -15 -43 -36 -49 -47 -10 -18 -10 -18 19 0 26 17 74
64 74 73 0 5 -2 4 -44 -26z"/>
<path d="M1148 3124 c-16 -8 -28 -19 -28 -25 0 -6 -4 -8 -9 -4 -13 7 -59 -14
-65 -31 -7 -19 4 -18 34 3 13 9 32 18 43 18 10 1 30 14 45 28 29 30 21 34 -20
11z"/>
<path d="M1414 3121 c-18 -11 -35 -24 -39 -30 -3 -6 -11 -9 -16 -5 -5 3 -27
-7 -47 -23 -20 -15 -41 -27 -45 -25 -12 4 -67 -27 -67 -38 0 -16 15 -12 44 11
14 11 26 18 26 14 0 -3 18 4 40 16 22 13 40 27 40 31 0 5 5 6 11 3 11 -8 76
33 84 53 6 15 6 15 -31 -7z"/>
<path d="M943 3110 c-26 -10 -31 -30 -8 -30 8 0 19 9 25 20 6 11 9 20 8 19 -2
0 -13 -4 -25 -9z"/>
<path d="M1535 3077 c-17 -12 -36 -27 -43 -34 -7 -7 -21 -13 -31 -13 -10 0
-28 -11 -41 -25 -28 -30 -13 -33 23 -5 14 11 32 20 39 20 17 0 95 66 88 73 -3
3 -19 -4 -35 -16z"/>
<path d="M1416 3065 c-20 -14 -40 -25 -44 -25 -4 0 -23 -10 -42 -22 -19 -12
-42 -23 -50 -24 -19 -3 -121 -41 -128 -49 -15 -15 13 -16 43 -2 20 9 42 17 49
17 8 0 19 7 26 15 7 8 16 12 21 9 11 -6 69 24 69 36 0 6 9 10 20 10 25 0 66
26 74 46 7 19 5 18 -38 -11z"/>
<path d="M1209 3064 c-15 -7 -29 -20 -33 -29 -5 -14 -2 -14 24 0 28 14 46 33
39 40 -2 2 -16 -3 -30 -11z"/>
<path d="M1098 3054 c-26 -13 -38 -34 -20 -34 12 1 57 38 52 43 -3 3 -17 -1
-32 -9z"/>
<path d="M1040 3030 c0 -5 5 -10 10 -10 6 0 10 5 10 10 0 6 -4 10 -10 10 -5 0
-10 -4 -10 -10z"/>
<path d="M1124 3025 c-18 -15 -18 -15 5 -13 14 2 26 9 29 16 5 17 -10 15 -34
-3z"/>
<path d="M1530 3009 c-19 -15 -42 -29 -50 -29 -18 0 -80 -49 -64 -50 6 0 23 9
37 20 14 11 32 20 41 20 17 0 84 55 76 63 -3 3 -21 -8 -40 -24z"/>
<path d="M2675 3018 c-16 -6 -49 -26 -73 -45 -35 -28 -43 -32 -48 -19 -4 9 -4
28 -2 41 6 31 2 31 -89 4 -73 -22 -94 -39 -49 -39 44 0 47 -15 44 -225 -3
-210 -1 -201 -53 -222 -24 -10 71 -16 172 -11 60 3 64 5 35 12 -18 5 -37 17
-42 27 -6 10 -10 96 -10 192 l0 174 41 29 c30 21 53 28 81 28 76 -2 85 -32 80
-272 l-3 -153 -37 -17 -37 -17 63 -3 c97 -5 191 2 167 11 -52 21 -50 13 -55
218 -6 215 -13 243 -73 279 -35 22 -66 24 -112 8z"/>
<path d="M3954 3011 c-49 -22 -84 -64 -84 -100 0 -32 17 -51 45 -51 33 0 45
20 45 73 0 46 2 49 36 63 45 19 100 9 120 -21 10 -16 14 -42 12 -81 l-3 -58
-99 -42 c-106 -46 -145 -76 -171 -131 -32 -66 4 -143 75 -164 45 -14 101 2
160 46 40 30 50 31 50 8 2 -68 98 -77 154 -14 23 26 16 37 -13 19 -18 -11 -23
-10 -38 5 -15 15 -19 43 -23 195 -4 152 -8 182 -24 209 -37 61 -157 82 -242
44z m176 -305 c0 -104 0 -105 -29 -125 -38 -28 -104 -28 -131 -1 -38 38 -38
94 0 143 18 23 130 87 152 87 4 0 8 -47 8 -104z"/>
<path d="M3023 2993 c-40 -15 -73 -30 -73 -34 0 -4 15 -9 33 -11 31 -3 32 -4
38 -63 11 -96 10 -301 -1 -330 -5 -14 -18 -28 -27 -31 -60 -19 -48 -23 77 -22
112 0 129 2 100 11 -19 6 -38 16 -42 21 -4 6 -8 93 -8 193 l0 182 26 20 c35
28 96 45 128 37 52 -13 60 -44 64 -225 3 -177 -4 -212 -43 -219 -11 -2 -24 -8
-30 -13 -5 -5 43 -9 120 -8 125 1 129 1 95 16 -19 8 -38 20 -42 27 -4 6 -8 90
-8 188 l0 176 47 31 c50 33 83 38 123 18 39 -19 49 -67 49 -232 1 -159 -8
-197 -44 -203 -11 -2 -24 -8 -29 -13 -6 -5 42 -9 120 -8 99 0 123 3 104 11
-58 24 -55 12 -61 215 -6 207 -18 255 -69 280 -59 30 -169 4 -222 -53 -13 -13
-25 -24 -28 -24 -3 0 -14 15 -24 34 -40 75 -155 77 -242 3 -18 -15 -35 -27
-38 -27 -3 0 -6 18 -6 40 0 22 -3 40 -7 39 -5 0 -41 -12 -80 -26z"/>
<path d="M1163 3000 c-23 -9 -32 -30 -14 -30 10 0 41 28 41 36 0 5 1 5 -27 -6z"/>
<path d="M1365 2986 c-11 -6 -27 -15 -35 -21 -8 -5 -23 -10 -33 -10 -10 -1
-26 -9 -35 -18 -15 -16 -15 -17 0 -17 10 0 23 6 30 13 7 8 20 12 29 10 9 -3
29 7 45 20 32 27 31 40 -1 23z"/>
<path d="M1535 2954 c-15 -14 -25 -27 -22 -30 9 -9 57 27 57 42 0 19 -3 18
-35 -12z"/>
<path d="M1355 2927 c-11 -7 -38 -18 -60 -25 -22 -6 -51 -15 -65 -19 -14 -4
-29 -6 -33 -5 -12 3 -47 -17 -47 -27 0 -8 46 1 90 17 8 3 26 7 39 8 13 2 29 8
35 14 5 5 18 10 27 10 22 0 70 39 49 40 -9 0 -24 -6 -35 -13z"/>
<path d="M898 2923 c-20 -3 -28 -10 -28 -24 0 -10 -4 -19 -10 -19 -5 0 -12
-16 -16 -35 -3 -19 -10 -35 -15 -35 -5 0 -9 -5 -9 -11 0 -7 10 -9 27 -4 22 5
25 4 14 -8 -6 -8 -21 -13 -31 -10 -17 4 -20 0 -20 -26 0 -23 4 -29 15 -25 8 4
15 1 15 -5 0 -6 -4 -11 -10 -11 -5 0 -10 -4 -10 -10 0 -18 30 -11 30 8 0 9 7
26 15 36 8 11 15 28 15 38 0 10 5 18 10 18 6 0 10 5 10 11 0 7 -10 9 -27 4
-23 -5 -25 -4 -14 9 7 8 10 19 7 25 -7 10 16 21 45 21 10 0 19 4 19 10 0 5 7
7 15 4 8 -4 15 -2 15 3 0 12 -48 15 -55 3 -4 -6 -11 -7 -17 -4 -14 9 11 24 40
24 12 0 22 5 22 10 0 10 -3 10 -52 3z m-48 -173 c-20 -13 -33 -13 -25 0 3 6
14 10 23 10 15 0 15 -2 2 -10z"/>
<path d="M1055 2919 c-12 -19 5 -23 22 -6 16 16 16 17 1 17 -9 0 -20 -5 -23
-11z"/>
<path d="M1100 2920 c0 -5 7 -7 15 -4 8 4 15 8 15 10 0 2 -7 4 -15 4 -8 0 -15
-4 -15 -10z"/>
<path d="M1195 2920 c-4 -6 -10 -8 -15 -5 -5 3 -20 0 -32 -7 -13 -7 -29 -11
-36 -9 -8 1 -20 -3 -27 -9 -8 -7 -18 -9 -24 -6 -5 3 -11 0 -14 -7 -3 -9 5 -12
29 -9 19 2 34 7 34 11 0 3 10 7 23 8 47 4 87 16 98 29 9 11 7 14 -9 14 -12 0
-24 -5 -27 -10z"/>
<path d="M1450 2910 c-14 -11 -35 -20 -46 -20 -12 0 -27 -6 -33 -14 -7 -8 -19
-12 -29 -9 -19 4 -61 -22 -50 -32 3 -4 17 -1 30 6 12 7 30 14 38 15 42 7 112
39 121 55 13 24 1 24 -31 -1z"/>
<path d="M1541 2896 c-26 -28 -17 -35 13 -13 11 8 17 19 15 26 -3 8 -13 3 -28
-13z"/>
<path d="M1470 2863 c-13 -9 -35 -18 -48 -19 -14 -2 -32 -10 -41 -18 -14 -15
-13 -16 6 -16 11 0 26 6 33 14 6 8 17 13 24 10 8 -3 26 6 42 20 33 29 21 35
-16 9z"/>
<path d="M936 2861 c-3 -5 -15 -7 -25 -4 -10 3 -22 0 -26 -7 -10 -15 1 -24 17
-14 7 5 22 8 32 9 11 0 21 6 23 13 5 14 -13 17 -21 3z"/>
<path d="M1110 2855 c-10 -13 -9 -15 9 -15 12 0 21 6 21 15 0 8 -4 15 -9 15
-5 0 -14 -7 -21 -15z"/>
<path d="M1060 2850 c-8 -5 -11 -12 -8 -16 10 -9 38 3 38 16 0 12 -10 13 -30
0z"/>
<path d="M1546 2841 c-11 -12 -17 -23 -14 -26 8 -9 41 21 37 34 -3 9 -11 6
-23 -8z"/>
<path d="M1240 2835 c-10 -12 -10 -15 3 -15 8 0 20 7 27 15 10 12 10 15 -3 15
-8 0 -20 -7 -27 -15z"/>
<path d="M1010 2830 c-13 -8 -12 -10 3 -10 9 0 17 5 17 10 0 12 -1 12 -20 0z"/>
<path d="M1185 2830 c-3 -5 -12 -7 -20 -4 -8 3 -20 2 -27 -2 -7 -5 -23 -7 -35
-5 -13 1 -23 -2 -23 -7 0 -5 -11 -7 -25 -4 -14 2 -25 0 -25 -6 0 -11 57 -14
74 -4 5 3 27 7 50 9 51 4 66 9 66 23 0 13 -27 13 -35 0z"/>
<path d="M910 2817 c0 -8 -7 -28 -16 -46 -17 -33 -14 -48 6 -36 6 4 9 13 6 21
-3 8 0 14 7 15 7 1 21 2 31 3 11 0 21 7 24 15 4 11 -2 12 -23 7 -24 -6 -27 -5
-16 7 6 8 20 13 30 10 10 -3 22 0 25 6 5 7 -7 11 -33 11 -28 0 -41 -4 -41 -13z"/>
<path d="M1482 2810 c-35 -21 -40 -30 -18 -30 17 0 63 36 56 44 -3 3 -20 -4
-38 -14z"/>
<path d="M1323 2813 c-7 -2 -13 -9 -13 -14 0 -14 26 -10 40 6 10 12 10 15 -1
14 -8 0 -20 -3 -26 -6z"/>
<path d="M990 2800 c-8 -5 -11 -12 -8 -16 10 -9 38 3 38 16 0 12 -10 13 -30 0z"/>
<path d="M1259 2794 c-11 -14 -10 -15 11 -12 13 1 25 9 28 16 5 17 -23 15 -39
-4z"/>
<path d="M1210 2790 c-8 -5 -11 -12 -8 -16 10 -9 38 3 38 16 0 12 -10 13 -30
0z"/>
<path d="M1409 2781 c-19 -16 -20 -20 -8 -21 17 0 45 27 37 35 -3 3 -16 -3
-29 -14z"/>
<path d="M1133 2783 c-18 -2 -33 -8 -33 -13 0 -7 34 -8 83 -1 4 1 7 6 7 11 0
6 -6 9 -12 8 -7 0 -28 -3 -45 -5z"/>
<path d="M1555 2779 c-11 -17 1 -21 15 -4 8 9 8 15 2 15 -6 0 -14 -5 -17 -11z"/>
<path d="M1055 2769 c-4 -6 -4 -13 -1 -16 8 -8 36 5 36 17 0 13 -27 13 -35 -1z"/>
<path d="M1347 2769 c-17 -10 -23 -29 -9 -29 5 0 16 6 27 13 22 17 7 29 -18
16z"/>
<path d="M1498 2762 c-34 -20 -37 -36 -5 -26 21 7 37 21 37 37 0 9 -1 9 -32
-11z"/>
<path d="M967 2763 c-12 -11 -8 -23 7 -23 8 0 16 7 20 15 5 15 -14 21 -27 8z"/>
<path d="M1010 2760 c0 -5 7 -10 15 -10 8 0 15 5 15 10 0 6 -7 10 -15 10 -8 0
-15 -4 -15 -10z"/>
<path d="M920 2750 c0 -5 7 -10 15 -10 8 0 15 5 15 10 0 6 -7 10 -15 10 -8 0
-15 -4 -15 -10z"/>
<path d="M1235 2750 c-3 -5 -12 -7 -20 -3 -23 8 -51 -5 -38 -18 7 -7 17 -8 25
-3 7 5 23 7 34 6 12 -2 24 4 27 12 7 17 -18 23 -28 6z"/>
<path d="M1276 2745 c-7 -19 5 -19 30 0 19 14 19 14 -2 15 -12 0 -24 -7 -28
-15z"/>
<path d="M1136 2741 c-3 -4 -17 -6 -31 -3 -14 2 -25 0 -25 -6 0 -15 72 -10 78
6 4 14 -14 17 -22 3z"/>
<path d="M995 2731 c-13 -12 -2 -18 28 -16 47 4 47 4 47 14 0 9 -67 11 -75 2z"/>
<path d="M1410 2725 c-10 -12 -9 -15 8 -15 11 0 25 7 32 15 10 12 9 15 -8 15
-11 0 -25 -7 -32 -15z"/>
<path d="M904 2718 c-3 -5 -4 -11 -2 -13 7 -7 78 7 78 15 0 12 -69 10 -76 -2z"/>
<path d="M1363 2723 c-7 -2 -13 -11 -13 -19 0 -12 4 -12 20 -4 32 17 26 37 -7
23z"/>
<path d="M1560 2719 c0 -5 5 -7 10 -4 6 3 10 8 10 11 0 2 -4 4 -10 4 -5 0 -10
-5 -10 -11z"/>
<path d="M859 2693 c-5 -16 -12 -34 -14 -40 -5 -15 -25 -17 -25 -3 0 6 5 10
10 10 6 0 10 5 10 10 0 6 -7 10 -15 10 -10 0 -15 -10 -15 -30 0 -24 3 -28 18
-23 15 6 15 5 4 -10 -8 -9 -11 -21 -7 -27 3 -5 1 -10 -4 -10 -6 0 -11 -13 -11
-29 0 -28 2 -29 30 -21 18 5 32 5 35 -1 4 -5 -5 -9 -19 -9 -14 0 -26 -4 -26
-9 0 -15 129 -8 135 7 4 10 0 13 -15 9 -11 -3 -23 -1 -26 4 -3 5 0 9 5 9 6 0
11 5 11 10 0 18 -22 10 -27 -10 -3 -11 -9 -20 -14 -20 -13 0 -11 11 5 43 12
22 12 27 2 27 -8 0 -16 -9 -19 -20 -3 -11 -11 -20 -18 -20 -10 0 -10 3 -1 12
15 15 16 28 2 28 -6 0 -15 -12 -21 -26 -14 -39 -20 -24 -8 22 12 45 24 60 33
45 4 -6 2 -11 -3 -11 -6 0 -11 -4 -11 -10 0 -5 6 -10 14 -10 12 0 32 44 28 63
-1 4 3 7 8 7 6 0 10 5 10 10 0 19 -28 10 -33 -10 -3 -11 -10 -20 -15 -20 -7 0
-5 11 4 28 17 32 18 42 4 42 -6 0 -15 -12 -21 -27z"/>
<path d="M1299 2704 c-11 -14 -10 -15 11 -12 13 1 25 9 28 16 5 17 -23 15 -39
-4z"/>
<path d="M1508 2709 c-19 -10 -24 -29 -9 -29 5 0 19 9 32 20 26 21 9 28 -23 9z"/>
<path d="M1113 2703 c-18 -6 -16 -23 1 -23 17 0 30 16 19 23 -5 2 -14 2 -20 0z"/>
<path d="M1155 2699 c-4 -6 -5 -13 -2 -16 7 -7 27 6 27 18 0 12 -17 12 -25 -2z"/>
<path d="M1196 2694 c-4 -11 -1 -14 11 -12 9 2 18 9 21 16 6 18 -25 15 -32 -4z"/>
<path d="M1245 2700 c-3 -5 3 -10 14 -10 12 0 21 5 21 10 0 6 -6 10 -14 10 -8
0 -18 -4 -21 -10z"/>
<path d="M937 2693 c-12 -11 -8 -23 8 -23 8 0 15 7 15 15 0 16 -12 20 -23 8z"/>
<path d="M979 2695 c-1 -3 -2 -8 -3 -12 -4 -20 -18 -31 -35 -26 -10 3 -22 0
-25 -6 -4 -6 7 -9 31 -8 21 1 38 7 38 12 0 20 16 33 34 28 10 -3 22 0 25 6 5
7 -5 11 -28 11 -20 0 -37 -2 -37 -5z"/>
<path d="M1060 2690 c0 -5 7 -10 15 -10 8 0 15 5 15 10 0 6 -7 10 -15 10 -8 0
-15 -4 -15 -10z"/>
<path d="M1430 2675 c-10 -12 -10 -15 3 -15 8 0 20 7 27 15 10 12 10 15 -3 15
-8 0 -20 -7 -27 -15z"/>
<path d="M1376 2671 c-3 -4 -17 -6 -31 -3 -18 3 -25 0 -25 -12 0 -17 12 -21
24 -9 4 4 19 7 33 8 14 0 28 6 30 13 5 13 -23 17 -31 3z"/>
<path d="M1005 2659 c-4 -6 -5 -13 -2 -16 7 -7 27 6 27 18 0 12 -17 12 -25 -2z"/>
<path d="M1047 2663 c-12 -11 -8 -23 8 -23 8 0 15 7 15 15 0 16 -12 20 -23 8z"/>
<path d="M1085 2661 c-3 -5 -1 -12 5 -16 12 -7 30 2 30 16 0 12 -27 12 -35 0z"/>
<path d="M1137 2663 c-12 -11 -8 -23 8 -23 8 0 15 7 15 15 0 16 -12 20 -23 8z"/>
<path d="M1175 2659 c-4 -6 -4 -13 -1 -16 8 -8 36 5 36 17 0 13 -27 13 -35 -1z"/>
<path d="M1227 2663 c-12 -11 -8 -23 8 -23 8 0 15 7 15 15 0 16 -12 20 -23 8z"/>
<path d="M1269 2654 c-12 -14 -11 -16 5 -13 11 2 21 10 24 17 5 17 -13 15 -29
-4z"/>
<path d="M1524 2656 c-11 -8 -33 -16 -49 -18 -16 -1 -31 -9 -33 -17 -4 -11 0
-12 14 -6 11 4 31 10 46 12 15 3 35 14 44 24 20 22 7 25 -22 5z"/>
<path d="M905 2619 c-4 -6 -5 -13 -2 -16 7 -7 27 6 27 18 0 12 -17 12 -25 -2z"/>
<path d="M944 2618 c-3 -5 -4 -11 -3 -12 8 -7 69 7 69 14 0 12 -59 9 -66 -2z"/>
<path d="M1025 2620 c-3 -4 9 -10 26 -12 16 -3 32 -1 35 4 3 5 12 4 19 -2 14
-12 35 -6 35 9 0 11 -109 11 -115 1z"/>
<path d="M1157 2623 c-12 -11 -8 -23 8 -23 8 0 15 7 15 15 0 16 -12 20 -23 8z"/>
<path d="M1390 2615 c-8 -9 -8 -15 -2 -15 18 0 42 12 42 21 0 14 -26 10 -40
-6z"/>
<path d="M1196 2612 c-3 -5 24 -9 60 -9 35 -1 64 2 64 7 0 10 -117 12 -124 2z"/>
<path d="M1330 2610 c0 -5 9 -10 20 -10 11 0 20 5 20 10 0 6 -9 10 -20 10 -11
0 -20 -4 -20 -10z"/>
<path d="M1544 2610 c-28 -11 -40 -40 -14 -33 20 5 46 31 39 37 -2 2 -13 0
-25 -4z"/>
<path d="M970 2590 c0 -5 -9 -6 -20 -3 -11 3 -20 1 -20 -4 0 -6 41 -10 95 -10
52 0 95 4 95 8 0 10 -60 17 -66 7 -3 -5 -10 -5 -16 -2 -16 10 -68 13 -68 4z"/>
<path d="M1469 2581 c-19 -16 -20 -20 -8 -21 17 0 45 27 37 35 -3 3 -16 -3
-29 -14z"/>
<path d="M1130 2574 c0 -17 22 -14 28 4 2 7 -3 12 -12 12 -9 0 -16 -7 -16 -16z"/>
<path d="M1170 2570 c0 -5 7 -10 15 -10 8 0 15 5 15 10 0 6 -7 10 -15 10 -8 0
-15 -4 -15 -10z"/>
<path d="M1210 2570 c0 -5 6 -10 14 -10 8 0 18 5 21 10 3 6 -3 10 -14 10 -12
0 -21 -4 -21 -10z"/>
<path d="M1260 2564 c0 -9 5 -14 12 -12 18 6 21 28 4 28 -9 0 -16 -7 -16 -16z"/>
<path d="M1313 2573 c-18 -6 -16 -23 1 -23 17 0 30 16 19 23 -5 2 -14 2 -20 0z"/>
<path d="M1363 2573 c-18 -6 -16 -23 1 -23 17 0 30 16 19 23 -5 2 -14 2 -20 0z"/>
<path d="M1405 2569 c-4 -6 -5 -12 -2 -15 7 -7 37 7 37 17 0 13 -27 11 -35 -2z"/>
<path d="M950 2550 c0 -5 7 -10 15 -10 8 0 15 5 15 10 0 6 -7 10 -15 10 -8 0
-15 -4 -15 -10z"/>
<path d="M990 2550 c0 -5 7 -10 15 -10 8 0 15 5 15 10 0 6 -7 10 -15 10 -8 0
-15 -4 -15 -10z"/>
<path d="M1032 2549 c2 -6 8 -10 13 -10 5 0 11 4 13 10 2 6 -4 11 -13 11 -9 0
-15 -5 -13 -11z"/>
<path d="M1075 2549 c-10 -15 3 -25 16 -12 7 7 7 13 1 17 -6 3 -14 1 -17 -5z"/>
<path d="M1542 2548 c-19 -19 -14 -30 8 -18 11 6 20 15 20 20 0 14 -14 12 -28
-2z"/>
<path d="M1110 2540 c0 -5 7 -10 15 -10 8 0 15 5 15 10 0 6 -7 10 -15 10 -8 0
-15 -4 -15 -10z"/>
<path d="M1155 2539 c-4 -6 -5 -13 -2 -16 7 -7 27 6 27 18 0 12 -17 12 -25 -2z"/>
<path d="M1190 2530 c0 -5 7 -10 15 -10 8 0 15 5 15 10 0 6 -7 10 -15 10 -8 0
-15 -4 -15 -10z"/>
<path d="M1236 2533 c-14 -14 -4 -21 34 -21 22 0 40 4 40 10 0 6 -8 8 -19 5
-10 -2 -25 -1 -33 4 -8 5 -18 6 -22 2z"/>
<path d="M1476 2525 c-3 -9 0 -15 8 -15 7 0 19 7 26 15 10 12 9 15 -8 15 -11
0 -22 -7 -26 -15z"/>
<path d="M977 2523 c-12 -11 -8 -23 8 -23 8 0 15 7 15 15 0 16 -12 20 -23 8z"/>
<path d="M1016 2523 c-11 -11 -6 -23 9 -23 8 0 15 4 15 9 0 13 -16 22 -24 14z"/>
<path d="M1325 2521 c-10 -17 12 -21 25 -6 10 12 10 15 -3 15 -9 0 -18 -4 -22
-9z"/>
<path d="M1370 2515 c-10 -13 -9 -15 9 -15 12 0 21 6 21 15 0 8 -4 15 -9 15
-5 0 -14 -7 -21 -15z"/>
<path d="M1425 2519 c-12 -19 5 -23 22 -6 16 16 16 17 1 17 -9 0 -20 -5 -23
-11z"/>
<path d="M1050 2510 c0 -5 7 -10 15 -10 8 0 15 5 15 10 0 6 -7 10 -15 10 -8 0
-15 -4 -15 -10z"/>
<path d="M1095 2510 c-3 -5 1 -10 9 -10 9 0 16 5 16 10 0 6 -4 10 -9 10 -6 0
-13 -4 -16 -10z"/>
<path d="M1138 2503 c7 -3 16 -2 19 1 4 3 -2 6 -13 5 -11 0 -14 -3 -6 -6z"/>
<path d="M811 2288 c1 -29 4 -43 6 -31 2 13 13 24 26 26 l22 4 -22 2 c-16 1
-23 7 -23 20 0 12 8 21 23 24 19 4 18 4 -5 6 -27 1 -28 0 -27 -51z"/>
<path d="M972 2298 c-1 -33 -7 -50 -19 -57 -10 -6 -13 -10 -8 -11 27 0 36 19
32 66 l-3 49 -2 -47z"/>
<path d="M1613 2290 c0 -30 2 -43 4 -27 2 15 2 39 0 55 -2 15 -4 2 -4 -28z"/>
<path d="M1811 2288 c1 -29 4 -43 6 -31 2 13 13 24 26 26 l22 4 -22 2 c-16 1
-23 7 -23 20 0 12 8 21 23 24 19 4 18 4 -5 6 -27 1 -28 0 -27 -51z"/>
<path d="M2481 2324 c0 -11 3 -14 6 -6 3 7 2 16 -1 19 -3 4 -6 -2 -5 -13z"/>
<path d="M2768 2323 c-2 -10 -1 -34 3 -53 6 -31 6 -30 8 18 1 52 -3 67 -11 35z"/>
<path d="M3151 2288 c1 -29 4 -43 6 -31 2 12 12 24 21 26 15 4 15 5 0 6 -27 2
-23 39 5 44 19 4 18 4 -5 6 -27 1 -28 0 -27 -51z"/>
<path d="M3252 2289 c1 -53 2 -54 5 -9 3 31 7 40 14 30 5 -8 9 -10 9 -4 0 6
-7 17 -15 24 -13 11 -15 5 -13 -41z"/>
<path d="M3354 2326 c-3 -8 -4 -31 -1 -52 l4 -39 1 43 c1 26 6 41 12 37 6 -3
7 1 4 9 -8 20 -13 20 -20 2z"/>
<path d="M3448 2333 c-2 -5 -1 -28 3 -53 l6 -45 1 53 c2 48 -2 63 -10 45z"/>
<path d="M3516 2324 c-3 -8 -2 -13 3 -10 4 3 13 -6 19 -19 11 -23 10 -25 -14
-25 -16 0 -23 4 -18 12 4 7 3 8 -4 4 -23 -14 -12 -26 23 -26 19 0 35 2 35 4 0
8 -30 76 -34 76 -2 0 -7 -7 -10 -16z"/>
<path d="M3223 2285 c0 -27 2 -38 4 -22 2 15 2 37 0 50 -2 12 -4 0 -4 -28z"/>
<path d="M3319 2290 c-6 -45 -4 -58 7 -48 3 3 4 26 2 49 l-3 44 -6 -45z"/>
<path d="M2558 2313 c-2 -5 -1 -24 3 -43 l6 -35 2 43 c1 39 -3 52 -11 35z"/>
<path d="M3060 2286 c0 -20 2 -36 4 -36 8 0 12 61 4 66 -4 3 -8 -11 -8 -30z"/>
<path d="M924 2296 c-3 -8 -4 -25 -1 -38 3 -18 5 -16 6 9 1 21 7 33 19 36 16
4 16 5 -1 6 -10 0 -20 -5 -23 -13z"/>
<path d="M1028 2303 c12 -2 22 -9 22 -14 0 -6 5 -7 10 -4 17 11 0 25 -28 24
-24 -2 -24 -2 -4 -6z"/>
<path d="M1108 2303 c7 -3 16 -2 19 1 4 3 -2 6 -13 5 -11 0 -14 -3 -6 -6z"/>
<path d="M1165 2300 c-3 -5 -1 -10 4 -10 6 0 11 5 11 10 0 6 -2 10 -4 10 -3 0
-8 -4 -11 -10z"/>
<path d="M1206 2295 c4 -8 8 -15 10 -15 2 0 4 7 4 15 0 8 -4 15 -10 15 -5 0
-7 -7 -4 -15z"/>
<path d="M1256 2302 c-3 -5 5 -7 19 -5 19 4 24 0 28 -21 4 -26 4 -26 3 1 -1
21 -7 29 -23 31 -11 2 -24 -1 -27 -6z"/>
<path d="M1330 2295 c0 -9 7 -18 15 -21 21 -8 19 -32 -2 -37 -17 -4 -17 -5 0
-6 26 -2 34 29 11 46 -16 12 -17 15 -4 23 13 8 12 10 -2 10 -10 0 -18 -7 -18
-15z"/>
<path d="M1394 2299 c-3 -6 -1 -16 6 -22 10 -9 11 -9 5 2 -4 8 -2 17 6 22 9 6
10 9 2 9 -6 0 -15 -5 -19 -11z"/>
<path d="M1453 2275 c0 -22 2 -30 4 -17 2 12 2 30 0 40 -3 9 -5 -1 -4 -23z"/>
<path d="M1484 2298 c-4 -6 0 -16 8 -22 8 -6 17 -18 21 -26 4 -12 6 -11 6 3 1
10 -6 20 -14 23 -20 8 -19 21 3 27 15 4 15 5 0 6 -9 0 -20 -4 -24 -11z"/>
<path d="M1568 2303 c7 -3 16 -2 19 1 4 3 -2 6 -13 5 -11 0 -14 -3 -6 -6z"/>
<path d="M1659 2272 c5 -34 6 -35 9 -8 2 16 0 32 -5 37 -5 5 -7 -7 -4 -29z"/>
<path d="M1697 2304 c-23 -23 7 -82 35 -71 8 4 7 6 -4 6 -23 1 -34 21 -17 32
10 6 11 9 2 9 -7 0 -13 5 -13 10 0 6 9 10 21 10 15 0 19 -5 15 -15 -3 -8 -1
-15 5 -15 6 0 9 8 7 18 -3 17 -38 29 -51 16z"/>
<path d="M1910 2276 c0 -20 2 -36 4 -36 8 0 12 61 4 66 -4 3 -8 -11 -8 -30z"/>
<path d="M1952 2296 c7 -8 15 -12 17 -11 5 6 -10 25 -20 25 -5 0 -4 -6 3 -14z"/>
<path d="M2018 2303 c26 -5 29 -20 5 -26 -16 -4 -16 -5 -1 -6 9 0 19 -9 22
-18 2 -10 4 -2 3 17 -2 30 -6 35 -27 37 -22 1 -22 1 -2 -4z"/>
<path d="M2106 2303 c7 -4 14 -17 17 -28 5 -16 5 -15 4 4 -1 14 -9 26 -17 28
-10 3 -11 2 -4 -4z"/>
<path d="M2170 2303 c8 -3 18 -11 22 -17 5 -7 8 -4 8 7 0 11 -7 17 -22 16 -16
0 -18 -2 -8 -6z"/>
<path d="M2230 2300 c-11 -8 -8 -9 12 -4 24 5 27 3 31 -28 l5 -33 -2 35 c-1
37 -19 48 -46 30z"/>
<path d="M2393 2275 c0 -22 2 -30 4 -17 2 12 2 30 0 40 -3 9 -5 -1 -4 -23z"/>
<path d="M2432 2290 c0 -14 2 -19 5 -12 2 6 2 18 0 25 -3 6 -5 1 -5 -13z"/>
<path d="M2610 2306 c0 -2 9 -6 20 -9 11 -3 18 -1 14 4 -5 9 -34 13 -34 5z"/>
<path d="M2810 2295 c0 -7 6 -18 14 -22 7 -4 16 -15 19 -23 4 -12 6 -11 6 3 1
10 -6 20 -14 23 -20 8 -19 21 3 27 13 4 11 5 -5 6 -14 1 -23 -5 -23 -14z"/>
<path d="M2873 2275 c0 -22 2 -30 4 -17 2 12 2 30 0 40 -3 9 -5 -1 -4 -23z"/>
<path d="M2912 2298 c-14 -14 -16 -44 -3 -52 4 -3 6 6 3 19 -3 19 1 27 19 34
14 6 18 10 9 10 -9 1 -21 -4 -28 -11z"/>
<path d="M2970 2273 c0 -43 5 -41 13 5 4 18 2 32 -3 32 -6 0 -10 -16 -10 -37z"/>
<path d="M1540 2276 c0 -14 4 -27 8 -30 5 -3 6 8 4 25 -5 35 -12 38 -12 5z"/>
<path d="M1882 2270 c0 -19 2 -27 5 -17 2 9 2 25 0 35 -3 9 -5 1 -5 -18z"/>
<path d="M2070 2270 c0 -16 2 -30 4 -30 2 0 6 14 8 30 3 17 1 30 -4 30 -4 0
-8 -13 -8 -30z"/>
<path d="M2682 2270 c0 -19 2 -27 5 -17 2 9 2 25 0 35 -3 9 -5 1 -5 -18z"/>
<path d="M2732 2270 c0 -19 2 -27 5 -17 2 9 2 25 0 35 -3 9 -5 1 -5 -18z"/>
<path d="M3022 2270 c0 -19 2 -27 5 -17 2 9 2 25 0 35 -3 9 -5 1 -5 -18z"/>
<path d="M3381 2295 c-1 -20 26 -58 33 -46 4 6 3 11 -2 11 -5 0 -14 10 -20 23
-6 12 -11 18 -11 12z"/>
<path d="M1002 2270 c0 -14 2 -19 5 -12 2 6 2 18 0 25 -3 6 -5 1 -5 -13z"/>
<path d="M1125 2280 c-3 -5 -1 -10 4 -10 6 0 11 5 11 10 0 6 -2 10 -4 10 -3 0
-8 -4 -11 -10z"/>
<path d="M2322 2265 c0 -16 2 -22 5 -12 2 9 2 23 0 30 -3 6 -5 -1 -5 -18z"/>
<path d="M2480 2280 c0 -5 5 -10 11 -10 5 0 7 5 4 10 -3 6 -8 10 -11 10 -2 0
-4 -4 -4 -10z"/>
<path d="M1080 2273 c0 -5 5 -15 11 -23 9 -13 10 -13 6 2 -3 9 -1 19 6 22 7 2
4 5 -5 5 -10 1 -18 -2 -18 -6z"/>
<path d="M2353 2265 c-3 -9 -3 -19 1 -22 3 -4 6 1 6 10 0 8 6 18 13 20 9 4 9
6 -1 6 -7 1 -15 -6 -19 -14z"/>
<path d="M2603 2265 c-3 -9 -3 -19 1 -22 3 -4 6 1 6 10 0 9 11 17 28 20 l27 4
-28 2 c-17 0 -30 -5 -34 -14z"/>
<path d="M1420 2257 c0 -8 -8 -18 -17 -20 -17 -4 -17 -5 0 -6 18 -1 35 25 23
36 -3 4 -6 -1 -6 -10z"/>
<path d="M1961 2254 c0 -11 3 -14 6 -6 3 7 2 16 -1 19 -3 4 -6 -2 -5 -13z"/>
<path d="M1050 2250 c0 -5 5 -10 11 -10 5 0 7 5 4 10 -3 6 -8 10 -11 10 -2 0
-4 -4 -4 -10z"/>
<path d="M1990 2251 c0 -10 19 -25 25 -20 1 2 -3 10 -11 17 -8 7 -14 8 -14 3z"/>
<path d="M2645 2250 c-3 -5 -1 -10 4 -10 6 0 11 5 11 10 0 6 -2 10 -4 10 -3 0
-8 -4 -11 -10z"/>
<path d="M1018 2203 c6 -2 18 -2 25 0 6 3 1 5 -13 5 -14 0 -19 -2 -12 -5z"/>
<path d="M1389 2144 c-3 -10 -2 -35 1 -54 l6 -35 5 37 c6 43 -4 86 -12 52z"/>
<path d="M1563 2105 c0 -33 2 -45 4 -27 2 18 2 45 0 60 -2 15 -4 0 -4 -33z"/>
<path d="M1998 2135 c-3 -14 -1 -28 3 -31 5 -3 9 9 9 25 0 38 -6 40 -12 6z"/>
<path d="M2523 2110 c0 -30 2 -43 4 -27 2 15 2 39 0 55 -2 15 -4 2 -4 -28z"/>
<path d="M2553 2110 c0 -30 2 -43 4 -27 2 15 2 39 0 55 -2 15 -4 2 -4 -28z"/>
<path d="M2983 2105 c0 -33 2 -45 4 -27 2 18 2 45 0 60 -2 15 -4 0 -4 -33z"/>
<path d="M3513 2110 c0 -30 2 -43 4 -27 2 15 2 39 0 55 -2 15 -4 2 -4 -28z"/>
<path d="M4430 2151 c0 -5 9 -7 20 -4 11 3 20 7 20 9 0 2 -9 4 -20 4 -11 0
-20 -4 -20 -9z"/>
<path d="M4631 2108 c2 -52 2 -53 8 -13 6 36 7 38 15 17 4 -13 10 -21 13 -19
5 6 -25 67 -32 67 -3 0 -4 -24 -4 -52z"/>
<path d="M864 2106 c11 -25 22 -43 24 -42 5 6 -30 86 -37 86 -4 0 2 -20 13
-44z"/>
<path d="M4493 2105 c0 -27 2 -38 4 -22 2 15 2 37 0 50 -2 12 -4 0 -4 -28z"/>
<path d="M4591 2134 c0 -11 3 -14 6 -6 3 7 2 16 -1 19 -3 4 -6 -2 -5 -13z"/>
<path d="M4716 2134 c-3 -8 -2 -12 3 -9 6 3 12 -12 14 -32 3 -35 4 -34 5 10 2
46 -10 63 -22 31z"/>
<path d="M1000 2101 c0 -23 2 -41 4 -41 8 0 12 71 4 76 -4 3 -8 -13 -8 -35z"/>
<path d="M1220 2102 c0 -22 3 -43 8 -45 9 -6 7 71 -2 80 -3 3 -6 -12 -6 -35z"/>
<path d="M1052 2118 c-14 -14 -16 -44 -4 -52 4 -2 8 8 7 22 0 36 36 38 46 2 6
-21 7 -22 8 -4 1 22 -16 44 -34 44 -6 0 -16 -5 -23 -12z"/>
<path d="M1183 2095 c0 -22 2 -30 4 -17 2 12 2 30 0 40 -3 9 -5 -1 -4 -23z"/>
<path d="M1273 2123 c-19 -7 -16 -48 4 -64 15 -13 15 -12 2 9 -11 18 -11 26
-1 42 7 11 11 20 10 19 -2 0 -9 -3 -15 -6z"/>
<path d="M1307 2109 c4 -13 8 -18 11 -10 2 7 -1 18 -6 23 -8 8 -9 4 -5 -13z"/>
<path d="M1448 2123 c7 -3 16 -2 19 1 4 3 -2 6 -13 5 -11 0 -14 -3 -6 -6z"/>
<path d="M1513 2115 c-3 -9 -3 -19 1 -22 3 -4 6 1 6 10 0 8 8 18 18 20 16 4
16 5 -1 6 -10 0 -20 -6 -24 -14z"/>
<path d="M1683 2123 c-7 -2 -12 -19 -12 -36 2 -28 2 -29 6 -7 3 14 10 31 15
38 11 13 10 13 -9 5z"/>
<path d="M1742 2124 c10 -3 19 -19 21 -37 4 -31 5 -31 3 3 -1 27 -5 35 -21 37
-14 1 -15 0 -3 -3z"/>
<path d="M1830 2110 c-13 -25 3 -60 28 -59 14 0 14 2 2 6 -21 8 -28 22 -22 45
3 13 11 18 23 15 11 -3 17 -1 13 4 -9 16 -33 10 -44 -11z"/>
<path d="M1955 2120 c-3 -6 1 -7 9 -4 18 7 21 14 7 14 -6 0 -13 -4 -16 -10z"/>
<path d="M2068 2112 c9 -10 19 -17 21 -16 6 5 -20 34 -30 34 -5 0 -1 -8 9 -18z"/>
<path d="M2303 2123 c-7 -2 -12 -19 -12 -36 2 -28 2 -29 6 -7 3 14 10 31 15
38 11 13 10 13 -9 5z"/>
<path d="M2430 2126 c0 -2 7 -7 16 -10 8 -3 12 -2 9 4 -6 10 -25 14 -25 6z"/>
<path d="M3095 2119 c-11 -16 -1 -19 13 -3 7 8 8 14 3 14 -5 0 -13 -5 -16 -11z"/>
<path d="M3203 2123 c-7 -2 -12 -19 -12 -36 2 -27 2 -28 6 -7 2 14 12 31 21
38 16 12 8 15 -15 5z"/>
<path d="M3260 2126 c0 -2 7 -7 16 -10 8 -3 12 -2 9 4 -6 10 -25 14 -25 6z"/>
<path d="M3343 2124 c20 -6 23 -24 5 -24 -9 0 -10 -3 -2 -8 6 -4 14 -14 17
-22 4 -8 5 1 4 20 -1 27 -7 35 -22 37 -16 1 -16 1 -2 -3z"/>
<path d="M3403 2123 c-7 -2 -12 -17 -12 -31 1 -21 2 -22 6 -7 3 11 12 26 21
33 16 12 8 15 -15 5z"/>
<path d="M3594 2116 c-3 -8 -4 -23 -1 -33 3 -12 5 -9 6 9 1 16 8 28 19 31 16
4 16 5 -1 6 -10 0 -20 -5 -23 -13z"/>
<path d="M3665 2120 c-3 -6 1 -7 9 -4 18 7 21 14 7 14 -6 0 -13 -4 -16 -10z"/>
<path d="M3886 2123 c6 -4 14 -15 17 -23 5 -11 6 -9 4 4 -1 11 -9 21 -17 23
-10 3 -11 2 -4 -4z"/>
<path d="M4046 2123 c6 -4 14 -15 17 -23 5 -11 6 -9 4 4 -1 11 -9 21 -17 23
-10 3 -11 2 -4 -4z"/>
<path d="M4206 2121 c-3 -5 2 -7 13 -4 13 3 21 -1 25 -14 4 -16 5 -15 3 2 -2
21 -31 33 -41 16z"/>
<path d="M4280 2120 c-8 -5 -12 -11 -10 -14 3 -2 14 2 24 10 22 15 10 19 -14
4z"/>
<path d="M4324 2119 c-3 -6 -1 -16 6 -22 10 -9 11 -9 5 2 -4 8 -2 17 6 22 9 6
10 9 2 9 -6 0 -15 -5 -19 -11z"/>
<path d="M4550 2124 c0 -6 7 -19 16 -30 14 -18 14 -18 3 6 -14 31 -19 36 -19
24z"/>
<path d="M912 2095 c0 -16 2 -22 5 -12 2 9 2 23 0 30 -3 6 -5 -1 -5 -18z"/>
<path d="M962 2090 c0 -19 2 -27 5 -17 2 9 2 25 0 35 -3 9 -5 1 -5 -18z"/>
<path d="M1132 2090 c0 -19 2 -27 5 -17 2 9 2 25 0 35 -3 9 -5 1 -5 -18z"/>
<path d="M1476 2105 c-3 -8 -1 -15 4 -15 6 0 10 7 10 15 0 8 -2 15 -4 15 -2 0
-6 -7 -10 -15z"/>
<path d="M1592 2095 c0 -16 2 -22 5 -12 2 9 2 23 0 30 -3 6 -5 -1 -5 -18z"/>
<path d="M1641 2104 c0 -11 3 -14 6 -6 3 7 2 16 -1 19 -3 4 -6 -2 -5 -13z"/>
<path d="M2212 2090 c0 -19 2 -27 5 -17 2 9 2 25 0 35 -3 9 -5 1 -5 -18z"/>
<path d="M2258 2090 c-3 -16 -1 -30 4 -30 4 0 8 14 8 30 0 17 -2 30 -4 30 -2
0 -6 -13 -8 -30z"/>
<path d="M2341 2104 c0 -11 3 -14 6 -6 3 7 2 16 -1 19 -3 4 -6 -2 -5 -13z"/>
<path d="M2409 2103 c-8 -26 12 -58 32 -50 11 4 10 6 -3 6 -11 1 -18 11 -20
34 -3 27 -4 29 -9 10z"/>
<path d="M2627 2108 c-2 -7 -1 -22 4 -33 6 -16 8 -14 8 13 1 33 -4 41 -12 20z"/>
<path d="M2662 2090 c0 -19 2 -27 5 -17 2 9 2 25 0 35 -3 9 -5 1 -5 -18z"/>
<path d="M2712 2090 c0 -19 2 -27 5 -17 2 9 2 25 0 35 -3 9 -5 1 -5 -18z"/>
<path d="M2743 2104 c-8 -22 9 -48 33 -51 14 -2 12 0 -5 7 -18 8 -22 16 -19
35 6 28 1 33 -9 9z"/>
<path d="M2812 2090 c0 -19 2 -27 5 -17 2 9 2 25 0 35 -3 9 -5 1 -5 -18z"/>
<path d="M2932 2090 c0 -19 2 -27 5 -17 2 9 2 25 0 35 -3 9 -5 1 -5 -18z"/>
<path d="M3061 2104 c0 -11 3 -14 6 -6 3 7 2 16 -1 19 -3 4 -6 -2 -5 -13z"/>
<path d="M3242 2090 c0 -19 2 -27 5 -17 2 9 2 25 0 35 -3 9 -5 1 -5 -18z"/>
<path d="M3442 2090 c0 -19 2 -27 5 -17 2 9 2 25 0 35 -3 9 -5 1 -5 -18z"/>
<path d="M3562 2090 c0 -19 2 -27 5 -17 2 9 2 25 0 35 -3 9 -5 1 -5 -18z"/>
<path d="M3822 2090 c0 -19 2 -27 5 -17 2 9 2 25 0 35 -3 9 -5 1 -5 -18z"/>
<path d="M3850 2090 c0 -16 2 -30 4 -30 2 0 6 14 8 30 3 17 1 30 -4 30 -4 0
-8 -13 -8 -30z"/>
<path d="M3982 2090 c0 -19 2 -27 5 -17 2 9 2 25 0 35 -3 9 -5 1 -5 -18z"/>
<path d="M4010 2090 c0 -16 2 -30 4 -30 2 0 6 14 8 30 3 17 1 30 -4 30 -4 0
-8 -13 -8 -30z"/>
<path d="M4430 2109 c0 -5 9 -9 20 -9 11 0 20 2 20 4 0 2 -9 6 -20 9 -11 3
-20 1 -20 -4z"/>
<path d="M4532 2090 c0 -19 2 -27 5 -17 2 9 2 25 0 35 -3 9 -5 1 -5 -18z"/>
<path d="M1432 2090 c0 -14 2 -19 5 -12 2 6 2 18 0 25 -3 6 -5 1 -5 -13z"/>
<path d="M3012 2090 c0 -14 2 -19 5 -12 2 6 2 18 0 25 -3 6 -5 1 -5 -13z"/>
<path d="M3635 2100 c-3 -5 -1 -10 4 -10 6 0 11 5 11 10 0 6 -2 10 -4 10 -3 0
-8 -4 -11 -10z"/>
<path d="M4820 2101 c0 -9 -8 -12 -25 -9 -14 3 -25 1 -25 -3 0 -5 13 -9 29 -9
16 0 32 -6 34 -12 4 -9 6 -8 6 2 0 8 -4 22 -9 30 -8 12 -10 12 -10 1z"/>
<path d="M815 2082 c-3 -8 -3 -17 0 -20 3 -3 5 0 5 6 0 6 10 12 23 14 l22 3
-22 7 c-15 4 -24 1 -28 -10z"/>
<path d="M1941 2084 c0 -11 3 -14 6 -6 3 7 2 16 -1 19 -3 4 -6 -2 -5 -13z"/>
<path d="M2032 2080 c0 -14 2 -19 5 -12 2 6 2 18 0 25 -3 6 -5 1 -5 -13z"/>
<path d="M2591 2091 c-7 -5 -12 -14 -10 -20 2 -6 10 -2 17 9 14 22 13 23 -7
11z"/>
<path d="M4199 2078 c5 -13 16 -24 25 -24 13 -2 13 -1 1 3 -8 2 -15 13 -15 24
0 10 -4 19 -10 19 -6 0 -6 -9 -1 -22z"/>
<path d="M1715 2080 c-3 -5 -1 -10 4 -10 6 0 11 5 11 10 0 6 -2 10 -4 10 -3 0
-8 -4 -11 -10z"/>
<path d="M1996 2075 c-3 -8 -1 -15 4 -15 6 0 10 7 10 15 0 8 -2 15 -4 15 -2 0
-6 -7 -10 -15z"/>
<path d="M2175 2078 c4 -11 0 -18 -12 -21 -15 -4 -16 -5 -1 -6 22 -1 33 18 19
32 -9 9 -11 8 -6 -5z"/>
<path d="M2370 2081 c0 -7 -4 -9 -10 -6 -5 3 -10 2 -10 -4 0 -5 4 -12 9 -15
10 -6 25 24 16 32 -3 3 -5 0 -5 -7z"/>
<path d="M4690 2081 c0 -7 -4 -9 -10 -6 -5 3 -10 2 -10 -4 0 -5 4 -12 9 -15
10 -6 25 24 16 32 -3 3 -5 0 -5 -7z"/>
<path d="M1510 2071 c0 -10 19 -25 25 -20 1 2 -3 10 -11 17 -8 7 -14 8 -14 3z"/>
<path d="M3112 2064 c-7 -8 -8 -14 -3 -14 10 0 25 19 20 25 -2 1 -10 -3 -17
-11z"/>
<path d="M4585 2071 c-3 -5 -1 -12 5 -16 5 -3 10 1 10 9 0 18 -6 21 -15 7z"/>
<path d="M1448 2053 c6 -2 18 -2 25 0 6 3 1 5 -13 5 -14 0 -19 -2 -12 -5z"/>
<path d="M1608 2053 c7 -3 16 -2 19 1 4 3 -2 6 -13 5 -11 0 -14 -3 -6 -6z"/>
<path d="M1728 2053 c7 -3 16 -2 19 1 4 3 -2 6 -13 5 -11 0 -14 -3 -6 -6z"/>
<path d="M2058 2053 c7 -3 16 -2 19 1 4 3 -2 6 -13 5 -11 0 -14 -3 -6 -6z"/>
<path d="M2838 2053 c7 -3 16 -2 19 1 4 3 -2 6 -13 5 -11 0 -14 -3 -6 -6z"/>
<path d="M3038 2053 c7 -3 16 -2 19 1 4 3 -2 6 -13 5 -11 0 -14 -3 -6 -6z"/>
<path d="M3608 2053 c6 -2 18 -2 25 0 6 3 1 5 -13 5 -14 0 -19 -2 -12 -5z"/>
<path d="M3948 2053 c7 -3 16 -2 19 1 4 3 -2 6 -13 5 -11 0 -14 -3 -6 -6z"/>
<path d="M4328 2053 c7 -3 16 -2 19 1 4 3 -2 6 -13 5 -11 0 -14 -3 -6 -6z"/>
<path d="M1393 1925 c0 -33 2 -45 4 -27 2 18 2 45 0 60 -2 15 -4 0 -4 -33z"/>
<path d="M1563 1930 c0 -30 2 -43 4 -27 2 15 2 39 0 55 -2 15 -4 2 -4 -28z"/>
<path d="M1999 1958 c-3 -65 -5 -73 -22 -76 -11 -2 -21 5 -26 20 -7 15 -10 17
-10 7 -1 -22 20 -38 47 -36 20 1 22 7 22 54 0 51 -9 76 -11 31z"/>
<path d="M3448 1963 c-2 -10 -1 -34 3 -53 6 -31 6 -30 8 18 1 52 -3 67 -11 35z"/>
<path d="M4073 1920 c0 -30 2 -43 4 -28 2 15 12 29 21 31 16 4 16 5 0 6 -9 0
-19 11 -21 24 -2 12 -4 -3 -4 -33z"/>
<path d="M4143 1925 c0 -27 2 -38 4 -22 2 15 2 37 0 50 -2 12 -4 0 -4 -28z"/>
<path d="M4173 1923 c0 -40 0 -42 4 -10 2 20 9 37 14 37 6 0 7 5 4 10 -13 22
-21 8 -22 -37z"/>
<path d="M4238 1924 c-2 -25 0 -48 4 -50 5 -3 8 18 8 45 0 64 -7 66 -12 5z"/>
<path d="M4280 1960 c0 -5 5 -10 11 -10 5 0 7 5 4 10 -3 6 -8 10 -11 10 -2 0
-4 -4 -4 -10z"/>
<path d="M4365 1961 c-3 -5 -1 -12 5 -16 5 -3 10 1 10 9 0 18 -6 21 -15 7z"/>
<path d="M4435 1959 c-4 -6 -4 -13 -1 -16 3 -4 6 -1 6 6 0 7 5 9 10 6 6 -3 10
-1 10 4 0 14 -17 14 -25 0z"/>
<path d="M1000 1944 c0 -8 5 -12 10 -9 6 4 8 11 5 16 -9 14 -15 11 -15 -7z"/>
<path d="M1220 1922 c0 -22 3 -43 8 -45 9 -6 7 71 -2 80 -3 3 -6 -12 -6 -35z"/>
<path d="M3321 1923 c-1 -23 3 -44 7 -47 4 -2 6 12 4 32 -5 56 -10 62 -11 15z"/>
<path d="M866 1931 c6 -21 3 -23 -19 -19 -24 5 -46 -16 -32 -30 3 -3 5 0 5 6
0 7 14 12 30 12 17 0 30 -5 30 -12 0 -6 2 -9 6 -6 3 3 -2 21 -10 39 -9 19 -13
24 -10 10z"/>
<path d="M1052 1938 c-24 -24 -6 -69 28 -67 9 0 6 4 -7 9 -25 10 -30 39 -11
58 7 7 10 12 7 12 -3 0 -10 -5 -17 -12z"/>
<path d="M1434 1925 c-9 -35 2 -55 28 -54 l23 2 -24 4 c-20 4 -23 9 -18 39 7
39 0 46 -9 9z"/>
<path d="M1515 1939 c-4 -6 -5 -12 -2 -15 2 -3 7 2 10 11 7 17 1 20 -8 4z"/>
<path d="M1683 1943 c-8 -3 -12 -20 -12 -41 2 -34 2 -35 6 -7 3 17 9 36 15 43
11 13 10 13 -9 5z"/>
<path d="M1757 1913 c5 -50 13 -55 13 -10 0 20 -4 38 -9 41 -4 3 -6 -11 -4
-31z"/>
<path d="M2382 1944 c11 -3 18 -19 21 -42 l4 -37 -1 40 c-1 32 -5 40 -21 42
-15 1 -15 0 -3 -3z"/>
<path d="M2476 1937 c3 -10 9 -15 12 -12 3 3 0 11 -7 18 -10 9 -11 8 -5 -6z"/>
<path d="M2536 1943 c5 -5 12 -12 16 -18 4 -6 8 -2 8 8 0 9 -7 17 -17 17 -9 0
-12 -3 -7 -7z"/>
<path d="M2612 1944 c11 -3 18 -19 21 -42 l4 -37 -1 40 c-1 32 -5 40 -21 42
-15 1 -15 0 -3 -3z"/>
<path d="M2705 1939 c-4 -5 1 -19 11 -30 16 -17 16 -22 4 -29 -11 -7 -11 -10
-2 -10 21 0 26 30 7 44 -10 7 -15 18 -11 24 4 7 5 12 2 12 -3 0 -8 -5 -11 -11z"/>
<path d="M2990 1946 c0 -2 7 -7 16 -10 8 -3 12 -2 9 4 -6 10 -25 14 -25 6z"/>
<path d="M3183 1943 c-7 -2 -12 -19 -12 -36 2 -27 2 -28 6 -7 2 14 12 31 21
38 16 12 8 15 -15 5z"/>
<path d="M3632 1944 c10 -3 19 -19 21 -37 4 -31 5 -31 3 3 -1 27 -5 35 -21 37
-14 1 -15 0 -3 -3z"/>
<path d="M3805 1940 c-3 -5 -1 -10 4 -10 6 0 11 5 11 10 0 6 -2 10 -4 10 -3 0
-8 -4 -11 -10z"/>
<path d="M913 1908 c1 -23 7 -33 20 -34 11 -1 12 0 3 3 -8 2 -17 17 -20 34 -6
28 -6 28 -3 -3z"/>
<path d="M962 1910 c0 -19 2 -27 5 -17 2 9 2 25 0 35 -3 9 -5 1 -5 -18z"/>
<path d="M1099 1908 c4 -28 6 -29 9 -9 2 13 0 27 -5 32 -6 6 -7 -3 -4 -23z"/>
<path d="M1133 1905 c0 -22 2 -30 4 -17 2 12 2 30 0 40 -3 9 -5 -1 -4 -23z"/>
<path d="M1183 1905 c0 -22 2 -30 4 -17 2 12 2 30 0 40 -3 9 -5 -1 -4 -23z"/>
<path d="M1476 1927 c3 -10 9 -15 12 -12 3 3 0 11 -7 18 -10 9 -11 8 -5 -6z"/>
<path d="M2033 1905 c0 -22 2 -30 4 -17 2 12 2 30 0 40 -3 9 -5 -1 -4 -23z"/>
<path d="M2101 1939 c-2 -18 22 -68 31 -63 6 4 6 9 1 13 -5 3 -14 17 -20 31
-6 14 -12 22 -12 19z"/>
<path d="M2143 1925 c-3 -9 -3 -18 -1 -21 3 -3 8 4 11 16 6 23 -1 27 -10 5z"/>
<path d="M2171 1924 c0 -11 3 -14 6 -6 3 7 2 16 -1 19 -3 4 -6 -2 -5 -13z"/>
<path d="M2206 1925 c-9 -26 -7 -32 5 -12 6 10 9 21 6 23 -2 3 -7 -2 -11 -11z"/>
<path d="M2255 1913 c0 -23 -4 -28 -22 -27 -12 0 -19 -4 -16 -9 3 -5 14 -6 25
-4 14 4 18 2 14 -9 -3 -9 -1 -12 4 -9 12 7 14 85 2 85 -4 0 -8 -12 -7 -27z"/>
<path d="M2293 1905 c0 -22 2 -30 4 -17 2 12 2 30 0 40 -3 9 -5 -1 -4 -23z"/>
<path d="M2764 1911 c0 -21 7 -36 16 -38 10 -3 11 -2 3 4 -6 4 -13 22 -16 38
-4 27 -5 27 -3 -4z"/>
<path d="M2812 1910 c0 -19 2 -27 5 -17 2 9 2 25 0 35 -3 9 -5 1 -5 -18z"/>
<path d="M2922 1910 c0 -19 2 -27 5 -17 2 9 2 25 0 35 -3 9 -5 1 -5 -18z"/>
<path d="M2968 1910 c2 -16 6 -30 8 -30 2 0 4 14 4 30 0 17 -4 30 -8 30 -5 0
-7 -13 -4 -30z"/>
<path d="M3126 1923 c-6 -14 -5 -15 5 -6 7 7 10 15 7 18 -3 3 -9 -2 -12 -12z"/>
<path d="M3493 1905 c0 -22 2 -30 4 -17 2 12 2 30 0 40 -3 9 -5 -1 -4 -23z"/>
<path d="M3913 1905 c0 -22 2 -30 4 -17 2 12 2 30 0 40 -3 9 -5 -1 -4 -23z"/>
<path d="M3952 1920 c0 -14 2 -19 5 -12 2 6 2 18 0 25 -3 6 -5 1 -5 -13z"/>
<path d="M4300 1935 c0 -5 5 -17 10 -25 5 -8 10 -10 10 -5 0 6 -5 17 -10 25
-5 8 -10 11 -10 5z"/>
<path d="M4465 1928 c3 -12 -1 -18 -13 -19 -13 0 -11 -3 6 -9 12 -5 22 -15 22
-21 0 -7 2 -10 6 -7 3 3 -2 21 -11 39 -8 19 -13 26 -10 17z"/>
<path d="M1308 1905 c-3 -14 -1 -25 3 -25 5 0 9 11 9 25 0 14 -2 25 -4 25 -2
0 -6 -11 -8 -25z"/>
<path d="M1594 1900 c1 -19 7 -25 26 -27 21 -1 21 0 3 3 -12 3 -24 15 -26 27
-3 18 -4 17 -3 -3z"/>
<path d="M1834 1900 c1 -16 7 -25 19 -26 11 -1 12 0 3 3 -8 2 -17 14 -19 26
-3 18 -4 18 -3 -3z"/>
<path d="M3282 1900 c0 -19 2 -27 5 -17 2 9 2 25 0 35 -3 9 -5 1 -5 -18z"/>
<path d="M4002 1905 c0 -16 2 -22 5 -12 2 9 2 23 0 30 -3 6 -5 -1 -5 -18z"/>
<path d="M4372 1900 c0 -19 2 -27 5 -17 2 9 2 25 0 35 -3 9 -5 1 -5 -18z"/>
<path d="M4411 1898 c-10 -30 -9 -31 4 -14 8 11 15 26 15 33 0 22 -8 14 -19
-19z"/>
<path d="M1000 1901 c0 -11 4 -22 9 -25 4 -3 6 6 3 19 -5 30 -12 33 -12 6z"/>
<path d="M3040 1910 c0 -5 5 -10 10 -10 6 0 10 5 10 10 0 6 -4 10 -10 10 -5 0
-10 -4 -10 -10z"/>
<path d="M1262 1893 c2 -9 10 -18 18 -20 12 -4 13 -3 1 5 -7 5 -10 15 -7 21 4
6 2 11 -4 11 -6 0 -10 -8 -8 -17z"/>
<path d="M1514 1890 c1 -8 10 -16 21 -17 15 -1 15 0 3 3 -9 3 -19 11 -21 17
-2 7 -3 5 -3 -3z"/>
<path d="M2585 1900 c-8 -13 3 -30 18 -30 8 0 7 3 -2 9 -7 5 -10 14 -7 20 4 6
5 11 2 11 -3 0 -8 -4 -11 -10z"/>
<path d="M2851 1894 c0 -11 3 -14 6 -6 3 7 2 16 -1 19 -3 4 -6 -2 -5 -13z"/>
<path d="M3240 1890 c0 -11 4 -20 9 -20 5 0 7 9 4 20 -3 11 -7 20 -9 20 -2 0
-4 -9 -4 -20z"/>
<path d="M3606 1893 c-6 -14 -5 -15 5 -6 7 7 10 15 7 18 -3 3 -9 -2 -12 -12z"/>
<path d="M2520 1879 c0 -5 9 -9 20 -9 11 0 20 2 20 4 0 2 -9 6 -20 9 -11 3
-20 1 -20 -4z"/>
<path d="M3058 1878 c5 -5 16 -8 23 -6 8 3 3 7 -10 11 -17 4 -21 3 -13 -5z"/>
<path d="M3764 1879 c-3 -5 6 -9 20 -9 31 0 34 6 6 13 -11 3 -23 1 -26 -4z"/>
<path d="M4320 1879 c0 -5 5 -7 10 -4 6 3 10 8 10 11 0 2 -4 4 -10 4 -5 0 -10
-5 -10 -11z"/>
<path d="M1723 1745 c0 -33 2 -45 4 -27 2 18 2 45 0 60 -2 15 -4 0 -4 -33z"/>
<path d="M3313 1745 c0 -33 2 -45 4 -27 2 18 2 45 0 60 -2 15 -4 0 -4 -33z"/>
<path d="M817 1783 c-14 -13 -7 -31 18 -47 14 -9 25 -12 25 -7 0 5 -9 13 -21
16 -14 5 -19 13 -16 26 5 20 4 23 -6 12z"/>
<path d="M1203 1740 c0 -30 2 -43 4 -27 2 15 2 39 0 55 -2 15 -4 2 -4 -28z"/>
<path d="M1800 1774 c0 -8 5 -12 10 -9 6 4 8 11 5 16 -9 14 -15 11 -15 -7z"/>
<path d="M1885 1780 c-3 -5 -1 -10 4 -10 6 0 11 5 11 10 0 6 -2 10 -4 10 -3 0
-8 -4 -11 -10z"/>
<path d="M3100 1780 c0 -6 4 -9 9 -6 4 3 13 -12 20 -34 6 -21 15 -42 20 -45 5
-3 1 16 -9 42 -16 44 -40 69 -40 43z"/>
<path d="M3720 1745 c0 -27 3 -46 6 -42 3 3 6 22 6 42 0 20 -3 39 -6 42 -3 4
-6 -15 -6 -42z"/>
<path d="M3793 1740 c0 -30 2 -43 4 -27 2 15 2 39 0 55 -2 15 -4 2 -4 -28z"/>
<path d="M3822 1738 c1 -51 2 -51 5 -10 2 23 8 40 13 37 6 -3 7 1 4 9 -13 33
-24 14 -22 -36z"/>
<path d="M3890 1748 l0 -43 -21 25 -21 25 18 -32 c10 -18 22 -33 26 -33 4 0 8
23 8 50 0 28 -2 50 -5 50 -3 0 -5 -19 -5 -42z"/>
<path d="M3928 1784 c-3 -5 3 -17 14 -26 21 -21 24 -10 5 17 -8 10 -16 14 -19
9z"/>
<path d="M4021 1774 c0 -11 3 -14 6 -6 3 7 2 16 -1 19 -3 4 -6 -2 -5 -13z"/>
<path d="M4075 1753 c-8 -20 -13 -38 -10 -41 5 -5 25 42 25 59 0 6 5 7 10 4 6
-3 10 -1 10 4 0 24 -21 9 -35 -26z"/>
<path d="M2300 1768 c0 -9 7 -19 16 -22 15 -6 15 -4 3 11 -7 10 -15 20 -16 22
-2 2 -3 -3 -3 -11z"/>
<path d="M3573 1735 c0 -27 2 -38 4 -22 2 15 2 37 0 50 -2 12 -4 0 -4 -28z"/>
<path d="M2210 1740 c0 -16 2 -30 4 -30 2 0 6 14 8 30 3 17 1 30 -4 30 -4 0
-8 -13 -8 -30z"/>
<path d="M3260 1760 c0 -5 5 -10 10 -10 6 0 10 5 10 10 0 6 -4 10 -10 10 -5 0
-10 -4 -10 -10z"/>
<path d="M927 1754 c-3 -5 1 -15 9 -22 16 -14 18 -5 5 17 -5 7 -11 9 -14 5z"/>
<path d="M1302 1730 c0 -19 2 -27 5 -17 2 9 2 25 0 35 -3 9 -5 1 -5 -18z"/>
<path d="M1423 1724 c0 -19 1 -33 4 -30 8 7 11 56 4 61 -4 2 -7 -12 -8 -31z"/>
<path d="M1462 1730 c0 -19 2 -27 5 -17 2 9 2 25 0 35 -3 9 -5 1 -5 -18z"/>
<path d="M1547 1753 c-9 -9 -9 -51 1 -56 4 -3 7 10 7 29 0 19 0 34 -1 34 0 0
-4 -3 -7 -7z"/>
<path d="M1613 1725 c0 -22 2 -30 4 -17 2 12 2 30 0 40 -3 9 -5 -1 -4 -23z"/>
<path d="M1973 1725 c0 -22 2 -30 4 -17 2 12 2 30 0 40 -3 9 -5 -1 -4 -23z"/>
<path d="M2463 1710 c0 -30 2 -43 4 -27 2 15 2 39 0 55 -2 15 -4 2 -4 -28z"/>
<path d="M2623 1725 c0 -22 2 -30 4 -17 2 12 2 30 0 40 -3 9 -5 -1 -4 -23z"/>
<path d="M2706 1745 c-9 -26 -7 -32 5 -12 6 10 9 21 6 23 -2 3 -7 -2 -11 -11z"/>
<path d="M2741 1744 c0 -11 3 -14 6 -6 3 7 2 16 -1 19 -3 4 -6 -2 -5 -13z"/>
<path d="M2771 1744 c0 -11 3 -14 6 -6 3 7 2 16 -1 19 -3 4 -6 -2 -5 -13z"/>
<path d="M2876 1747 c3 -10 9 -15 12 -12 3 3 0 11 -7 18 -10 9 -11 8 -5 -6z"/>
<path d="M2910 1750 c0 -5 5 -10 10 -10 6 0 10 5 10 10 0 6 -4 10 -10 10 -5 0
-10 -4 -10 -10z"/>
<path d="M3397 1753 c-9 -9 -9 -51 1 -56 4 -3 7 10 7 29 0 19 0 34 -1 34 0 0
-4 -3 -7 -7z"/>
<path d="M3445 1741 c4 -13 1 -29 -7 -39 -12 -15 -11 -16 5 -3 19 15 23 46 6
57 -8 4 -9 -1 -4 -15z"/>
<path d="M3482 1730 c0 -19 2 -27 5 -17 2 9 2 25 0 35 -3 9 -5 1 -5 -18z"/>
<path d="M3532 1730 c0 -19 2 -27 5 -17 2 9 2 25 0 35 -3 9 -5 1 -5 -18z"/>
<path d="M3996 1745 c-9 -26 -7 -32 5 -12 6 10 9 21 6 23 -2 3 -7 -2 -11 -11z"/>
<path d="M4113 1745 c2 -11 8 -29 15 -40 12 -19 12 -18 6 5 -3 14 -10 32 -15
40 -7 12 -8 11 -6 -5z"/>
<path d="M1030 1747 c0 -2 11 -13 25 -25 14 -12 25 -18 25 -13 0 5 -11 16 -25
25 -14 9 -25 15 -25 13z"/>
<path d="M1352 1720 c0 -19 2 -27 5 -17 2 9 2 25 0 35 -3 9 -5 1 -5 -18z"/>
<path d="M1512 1720 c0 -19 2 -27 5 -17 2 9 2 25 0 35 -3 9 -5 1 -5 -18z"/>
<path d="M1683 1722 c0 -22 4 -29 10 -23 7 7 7 18 0 33 -9 20 -10 20 -10 -10z"/>
<path d="M2060 1732 c0 -10 7 -19 14 -19 11 0 13 5 5 19 -5 10 -12 18 -14 18
-3 0 -5 -8 -5 -18z"/>
<path d="M2133 1726 c1 -17 9 -31 17 -33 10 -3 11 -2 4 4 -7 4 -14 19 -17 33
-4 22 -5 21 -4 -4z"/>
<path d="M2509 1722 c-3 -20 -2 -29 4 -23 5 5 7 19 5 32 -3 20 -5 19 -9 -9z"/>
<path d="M2591 1734 c0 -11 3 -14 6 -6 3 7 2 16 -1 19 -3 4 -6 -2 -5 -13z"/>
<path d="M3362 1720 c0 -19 2 -27 5 -17 2 9 2 25 0 35 -3 9 -5 1 -5 -18z"/>
<path d="M4022 1720 c0 -19 2 -27 5 -17 2 9 2 25 0 35 -3 9 -5 1 -5 -18z"/>
<path d="M1802 1720 c0 -14 2 -19 5 -12 2 6 2 18 0 25 -3 6 -5 1 -5 -13z"/>
<path d="M2540 1721 c0 -11 4 -22 9 -25 4 -3 6 6 3 19 -5 30 -12 33 -12 6z"/>
<path d="M897 1712 c1 -8 3 -16 3 -18 0 -3 5 -2 10 1 6 3 10 11 10 16 0 6 -4
8 -9 5 -5 -4 -11 -3 -14 1 -2 5 -2 2 0 -5z"/>
<path d="M1122 1716 c7 -8 15 -12 17 -11 5 6 -10 25 -20 25 -5 0 -4 -6 3 -14z"/>
<path d="M1383 1715 c-3 -9 -3 -18 -1 -21 3 -3 8 4 11 16 6 23 -1 27 -10 5z"/>
<path d="M1643 1715 c-3 -9 -3 -18 -1 -21 3 -3 8 4 11 16 6 23 -1 27 -10 5z"/>
<path d="M1930 1710 c0 -11 2 -20 4 -20 2 0 6 9 9 20 3 11 1 20 -4 20 -5 0 -9
-9 -9 -20z"/>
<path d="M2797 1709 c4 -13 8 -18 11 -10 2 7 -1 18 -6 23 -8 8 -9 4 -5 -13z"/>
<path d="M2974 1698 c1 -39 9 -39 21 1 5 15 3 21 -3 17 -6 -3 -12 0 -14 6 -3
7 -4 -4 -4 -24z"/>
<path d="M3075 1719 c-11 -16 -1 -19 13 -3 7 8 8 14 3 14 -5 0 -13 -5 -16 -11z"/>
<path d="M3640 1721 c0 -7 -4 -10 -9 -7 -5 4 -7 -4 -3 -16 l5 -22 9 24 c5 12
6 25 3 28 -3 3 -5 0 -5 -7z"/>
<path d="M2380 1705 c0 -8 4 -15 10 -15 5 0 7 7 4 15 -4 8 -8 15 -10 15 -2 0
-4 -7 -4 -15z"/>
<path d="M2876 1703 c-6 -14 -5 -15 5 -6 7 7 10 15 7 18 -3 3 -9 -2 -12 -12z"/>
<path d="M950 1700 c0 -5 5 -10 10 -10 6 0 10 5 10 10 0 6 -4 10 -10 10 -5 0
-10 -4 -10 -10z"/>
<path d="M1840 1700 c0 -5 5 -10 10 -10 6 0 10 5 10 10 0 6 -4 10 -10 10 -5 0
-10 -4 -10 -10z"/>
<path d="M2420 1699 c0 -5 5 -7 10 -4 6 3 10 8 10 11 0 2 -4 4 -10 4 -5 0 -10
-5 -10 -11z"/>
<path d="M2680 1700 c0 -5 5 -10 10 -10 6 0 10 5 10 10 0 6 -4 10 -10 10 -5 0
-10 -4 -10 -10z"/>
<path d="M3220 1699 c0 -5 5 -7 10 -4 6 3 10 8 10 11 0 2 -4 4 -10 4 -5 0 -10
-5 -10 -11z"/>
<path d="M3970 1700 c0 -5 5 -10 10 -10 6 0 10 5 10 10 0 6 -4 10 -10 10 -5 0
-10 -4 -10 -10z"/>
</g>
</svg>
