<?xml version="1.0" standalone="no"?>
<!DOCTYPE svg PUBLIC "-//W3C//DTD SVG 20010904//EN"
 "http://www.w3.org/TR/2001/REC-SVG-20010904/DTD/svg10.dtd">
<svg version="1.0" xmlns="http://www.w3.org/2000/svg"
 width="211.000000pt" height="211.000000pt" viewBox="0 0 211.000000 211.000000"
 preserveAspectRatio="xMidYMid meet">

<g transform="translate(0.000000,211.000000) scale(0.100000,-0.100000)"
fill="#000000" stroke="none">
<path d="M0 1055 l0 -1055 1055 0 1055 0 0 1055 0 1055 -1055 0 -1055 0 0
-1055z m558 753 c3 -16 -9 -18 -115 -20 l-118 -3 -3 -62 -3 -62 108 -3 c88 -2
108 -6 108 -18 0 -12 -20 -16 -107 -18 l-107 -3 -3 -77 c-2 -60 -6 -77 -18
-77 -13 0 -15 27 -18 170 -1 93 0 175 3 182 3 11 35 13 137 11 116 -3 133 -5
136 -20z m300 2 c23 -10 42 -24 42 -30 0 -19 -27 -22 -59 -6 -39 20 -110 20
-139 0 -33 -23 -29 -60 11 -84 17 -11 39 -20 47 -20 34 0 91 -22 120 -46 40
-35 41 -81 1 -126 -24 -27 -36 -32 -89 -36 -49 -3 -70 0 -116 21 -33 15 -56
32 -56 41 0 21 23 20 70 -4 93 -47 210 -2 166 64 -11 17 -35 28 -84 41 -88 21
-128 45 -136 83 -22 97 105 155 222 102z m253 -80 c39 -54 76 -97 80 -94 4 2
38 47 75 99 62 88 85 108 98 87 11 -18 9 -343 -3 -355 -23 -23 -30 10 -33 143
l-3 135 -64 -87 c-35 -49 -69 -88 -75 -88 -7 0 -41 39 -76 88 l-65 87 -5 -140
c-4 -116 -8 -140 -20 -140 -13 0 -15 27 -18 170 -1 93 0 175 2 182 12 29 38 8
107 -87z m644 -78 c47 -95 83 -178 80 -183 -14 -21 -36 -6 -60 41 l-25 50
-105 0 -105 0 -25 -50 c-25 -49 -55 -67 -55 -32 0 18 142 316 162 340 27 32
47 6 133 -166z m86 -433 c10 -20 -26 -58 -459 -491 -433 -433 -471 -469 -491
-459 -11 7 -21 19 -21 29 0 22 920 942 942 942 10 0 22 -10 29 -21z"/>
<path d="M1603 1694 l-40 -89 80 -3 c44 -2 81 -1 84 2 2 2 -15 43 -39 91 l-44
87 -41 -88z"/>
</g>
</svg>
