<?xml version="1.0" standalone="no"?>
<!DOCTYPE svg PUBLIC "-//W3C//DTD SVG 20010904//EN"
 "http://www.w3.org/TR/2001/REC-SVG-20010904/DTD/svg10.dtd">
<svg version="1.0" xmlns="http://www.w3.org/2000/svg"
 width="400.000000pt" height="400.000000pt" viewBox="0 0 400.000000 400.000000"
 preserveAspectRatio="xMidYMid meet">

<g transform="translate(0.000000,400.000000) scale(0.100000,-0.100000)"
fill="#000000" stroke="none">
<path d="M0 2000 l0 -2000 2000 0 2000 0 0 2000 0 2000 -2000 0 -2000 0 0
-2000z m820 262 c0 -104 3 -191 6 -195 9 -8 103 22 156 50 96 52 202 184 238
296 l12 37 110 0 111 0 -7 -42 c-22 -134 -131 -305 -260 -405 l-39 -30 159
-219 c87 -120 161 -222 162 -226 2 -5 -53 -7 -124 -6 l-127 3 -129 175 c-71
96 -136 176 -144 178 -7 2 -39 -2 -69 -8 l-55 -11 0 -170 0 -169 -100 0 -100
0 0 465 0 465 100 0 100 0 0 -188z m1234 -109 l221 -293 3 295 2 296 103 -3
102 -3 3 -463 2 -463 -107 3 -107 3 -174 230 c-95 127 -196 259 -223 294 l-49
65 0 -297 0 -297 -100 0 -100 0 0 465 0 466 102 -3 101 -3 221 -292z m1366
277 c0 -26 -32 -90 -57 -112 -46 -42 -83 -48 -302 -48 -115 0 -211 -3 -213 -7
-2 -5 -2 -50 0 -100 l3 -93 205 0 c199 0 204 -1 204 -20 0 -31 -36 -95 -65
-118 -43 -34 -88 -43 -221 -45 l-127 -2 -1 -180 -1 -180 -102 -3 -103 -3 0
466 0 465 390 0 c386 0 390 0 390 -20z"/>
</g>
</svg>
